<?xml version="1.0" encoding="UTF-8"?>
<!-- RTN V2 Ledger icon — 1.6 Content -->
<!-- Generated with rough.js · roughness 1.1 · bowing 1.6 · stroke 2.9 · seed 106 -->
<svg xmlns="http://www.w3.org/2000/svg" viewBox="0 0 64 64" width="64" height="64" fill="none">
<g><path d="M50.95691800378263 14.188960591331124 C47.09441636270582 22.74463411588371, 43.06157272449434 26.9987841034323, 40.06686305068433 49.546319583430886 M38.53119066096842 47.90439560674131 C30.7611201453954 48.676526922568684, 25.70826497711241 52.228873259410264, 12.85671638585627 51.75666166804731 M14.979714861139655 50.61606207229197 C21.484665776434543 41.77952349544466, 32.10655143598021 32.226424647727605, 51.5378681447357 16.033214536681772 M50 14 C50 14, 50 14, 50 14" stroke="#2B4A7C" stroke-width="2.9" fill="none"></path></g><g><path d="M50.95691800378263 14.188960591331124 C44.02380726794303 21.276435292205214, 36.78333911384046 23.926773021808266, 24.066863050684333 41.546319583430886" stroke="#2B4A7C" stroke-width="2.9" fill="none"></path></g><g><path d="M43.95691800378263 21.188960591331124 C39.68138297002762 27.564819780133664, 35.04710973508656 29.61372791300714, 30.066863050684333 45.546319583430886" stroke="#2B4A7C" stroke-width="2.9" fill="none"></path></g><g><path d="M42.223821216310895 20.938379177377648 C42.54931454893667 20.74407387230292, 43.2831921547317 20.460792552448634, 43.30282001197821 20.51562393151887 C43.322447869224725 20.570455310589107, 42.30601826078777 20.899878848464937, 42.341588359789974 21.26736745179906 C42.377158458792174 21.634856055133184, 43.50601285812197 22.281849646407846, 43.51624060599141 22.720555551523603 C43.52646835386086 23.15926145663936, 42.69848172877835 23.637330816593842, 42.40295484700662 23.899602882493603 C42.10742796523489 24.161874948393365, 42.03233203234166 24.512238217051127, 41.743079315361065 24.29418794692218 C41.45382659838047 24.07613767679323, 40.718663695262485 22.992117792823393, 40.667438545123076 22.591301261719902 C40.61621339498367 22.19048473061641, 41.41586483513324 22.060030927770438, 41.43572841452461 21.889288760301227 C41.45559199391598 21.718546592832016, 40.74086182392695 21.881584587062214, 40.78662002147128 21.56684825690464 C40.83237821901561 21.252111926747062, 41.42762888127732 20.294749887212838, 41.710277599790615 20.00087077935576 C41.99292631830391 19.706991671498685, 42.231127073005716 19.725557618940133, 42.48251233255104 19.803573609762186" stroke="none" stroke-width="0" fill="#2B4A7C"></path><path d="M41.311746017987886 19.813248175072918 C41.76340345633357 19.652168016821975, 43.713280416520504 20.24849509777056, 43.99511060636041 20.72990060008561 C44.27694079620032 21.21130610240066, 42.99672215197623 22.317877477101668, 43.00272715702733 22.701681188963203 C43.00873216207843 23.08548490082474, 44.30264746116296 23.00038536619326, 44.031140636667025 23.032722871254823 C43.75963381217109 23.065060376316385, 41.94053784041692 22.82065584062317, 41.37368621005169 22.895706219332578 C40.80683457968645 22.970756598041984, 40.576730264807814 23.619082125034065, 40.630030854475606 23.483025143511252 C40.6833314441434 23.34696816198844, 41.549300999416985 22.46063374861605, 41.69348974805845 22.079364330195695 C41.83767849669991 21.69809491177534, 41.57672078078443 21.5474055998131, 41.495163346324375 21.195408632989114 C41.41360591186432 20.843411666165128, 40.965373154820725 20.00699573076678, 41.204145141298156 19.967382529251772 C41.44291712777559 19.927769327736765, 42.8070650316949 20.77548674797367, 42.927795265188955 20.957729423899067 C43.04852549868301 21.139972099824465, 42.037020378631595 21.08268868216853, 41.9285265422625 21.06083858480416" stroke="#2B4A7C" stroke-width="2.9" fill="none"></path></g>
</svg>
