<?xml version="1.0" encoding="UTF-8"?>
<!-- RTN V2 Ledger icon — 1.5 Delivery -->
<!-- Generated with rough.js · roughness 1.1 · bowing 1.6 · stroke 2.9 · seed 105 -->
<svg xmlns="http://www.w3.org/2000/svg" viewBox="0 0 64 64" width="64" height="64" fill="none">
<g><path d="M10 44 C8.413635804690422 24.8783203150651, 29.662020711538695 14.748070519511263, 40.81038480643183 26.832432387604868 M43 24.947441116742347 C47.97276886937885 29.617179778579832, 55.31475053075701 34.863027193649295, 51.94628049377352 45.305714941583574" stroke="#2B4A7C" stroke-width="2.9" fill="none"></path></g><g><path d="M14.113553453511365 36.234880963801494 C14.65737963630603 35.16749744488926, 15.695480330235297 34.705148950676055, 17.130782434939714 33.73241725396672" stroke="#2B4A7C" stroke-width="2.9" fill="none"></path></g><g><path d="M31.672089231694116 22.199303106730802 C31.785504793133214 22.293358184034005, 32.241097031738235 22.92772399703972, 32.11097257592715 25.197212579613552" stroke="#2B4A7C" stroke-width="2.9" fill="none"></path></g><g><path d="M49.113553453511365 36.234880963801494 C48.65501945302607 35.10404287707687, 48.690759963675376 34.64169438286367, 47.13078243493972 33.73241725396672" stroke="#2B4A7C" stroke-width="2.9" fill="none"></path></g><g><path d="M30.145056576854557 45.12742862624718 C32.75542225426895 40.003987735468414, 37.73830558512943 37.78471496324505, 44.62775568771063 33.11560281904028" stroke="#2B4A7C" stroke-width="2.9" fill="none"></path></g><g><path d="M31.79665453666158 42.66853555158397 C32.1305736953703 42.74015390056809, 32.223504565186914 42.558210893915835, 32.64699596549137 43.01006046196083 C33.07048736579583 43.46191003000583, 34.17988646533004 44.817694562348116, 34.337602938488324 45.37963295985398 C34.495319411646605 45.94157135735984, 34.10608068382172 46.45773040624112, 33.59329480444105 46.381690846995994 C33.08050892506038 46.30565128775087, 31.71899429231183 45.270963022275836, 31.260887662204286 44.923395604383245 C30.802781032096743 44.575828186490654, 30.81148078444181 44.412684379418536, 30.844655023795788 44.296286339640425 C30.877829263149767 44.17988829986231, 31.483850163327542 44.49840132755642, 31.459933098328168 44.22500736571457 C31.436016033328794 43.95161340387271, 30.792169999018977 42.871199050777086, 30.701152633799545 42.6559225685893 C30.610135268580112 42.44064608640151, 30.419226007995746 42.982376652131904, 30.91382890701157 42.93334847258783 C31.408431806027394 42.88432029304376, 33.50165731499355 42.376295404235876, 33.66877002789449 42.36175349132483 C33.83588274079543 42.34721157841379, 31.90642394854352 42.60415575236513, 31.91650518441722 42.846096995121556" stroke="none" stroke-width="0" fill="#2B4A7C"></path><path d="M33.11522684611178 41.598144924435054 C33.599912803894334 41.964150605176684, 33.644599142954455 43.402254744652275, 33.58568528055609 43.84916468513085 C33.52677141815773 44.29607462560943, 32.9938927970093 44.07694597385856, 32.76174367172159 44.27960456730652 C32.52959454643388 44.482263160754485, 32.35556580304412 44.82384504991266, 32.192790528829825 45.06511624581866 C32.03001525461553 45.30638744172465, 32.06899641798849 45.87168212380192, 31.7850920264358 45.72723174274249 C31.501187634883113 45.58278136168306, 30.754694484955685 44.60868445355428, 30.489364179513696 44.19841395946209 C30.224033874071708 43.78814346536989, 30.322920225988696 43.539859216168544, 30.19311019378388 43.26560877818932 C30.063300161579065 42.99135834021009, 29.582064177680902 42.683972909958236, 29.710503986284806 42.552911331586714 C29.83894379488871 42.42184975321519, 30.37235854583152 42.45364999664916, 30.963749045407308 42.4792393079602 C31.555139544983096 42.50482861927124, 33.05019688551271 42.58036745450833, 33.258846983739524 42.70644719945293 C33.467497081966336 42.832526944397536, 32.34867328988719 43.2656356120662, 32.21564963476819 43.23571777762781" stroke="#2B4A7C" stroke-width="2.9" fill="none"></path></g>
</svg>
