<?xml version="1.0" encoding="UTF-8"?>
<!-- RTN V2 Ledger icon — 1.2 Operations -->
<!-- Generated with rough.js · roughness 1.1 · bowing 1.6 · stroke 2.9 · seed 102 -->
<svg xmlns="http://www.w3.org/2000/svg" viewBox="0 0 64 64" width="64" height="64" fill="none">
<g><path d="M32.79953672142442 8.175482810944729 C34.194714791965346 9.874340035034052, 35.288589470832264 11.83986541915892, 39.47449899157688 14.27031505083298 M39.81760883044038 15.357860735713267 C42.505784311883296 15.409767627555924, 46.301474726643754 15.163011327636983, 48.75013612846442 14.7939343449048 M48.2731849047412 14.784699435443235 C47.76159714012241 18.62982541070735, 49.0377416765753 22.04316141153538, 48.53895509732175 25.845439638019243 M47.92320029189721 24.52629871148836 C50.94873178393736 26.796453231273876, 54.16670746071098 29.964358928733205, 56.55649417612664 33.030844655133976 M56.76895776353192 32.12712961961987 C52.52077881211193 33.7967296012806, 49.122465227643886 36.85404315372984, 49.361673481038245 39.356450187384034 M49.48480554373171 39.26646855808455 C48.932770185462886 42.24385595740641, 49.21274557671229 46.0467635420349, 49.8274469953471 48.15803282356967 M49.246458881818675 49.68573220693216 C45.6323713576374 47.94119995858074, 44.89251251358781 49.105229755166, 37.982282798004945 48.064058289125946 M38.03723871030415 49.538645179636234 C36.62085498440288 51.25189738337149, 34.10075793215296 52.21922030900448, 31.95065635365647 55.75481040941103 M31.29256722539778 55.93183041744278 C31.462482856652027 54.50775177917928, 27.84316021120998 52.61869182585277, 24.122256848033107 48.33099961639324 M25.04927279302384 48.382570316827284 C21.67139739650247 47.98127083985817, 18.20729716796675 49.81423643820644, 15.00420125427559 48.41984991036673 M13.973884267430174 49.76124009674683 C15.729056369976195 47.61615418978213, 15.672863936156455 44.90635204116601, 14.481433107303078 39.682400298739374 M15.589900269702564 39.60810208979181 C14.058351601211708 37.33180456512046, 11.641490575380068 35.394926528329954, 8.459669254488048 31.435716019666636 M7.94631385028251 32.99904765042356 C10.259926042830685 28.71176169921262, 13.80300769743769 26.58517314097191, 14.562944003063652 25.984618292495576 M15.844086565891986 24.408727996556806 C14.949802033325069 22.210072705369328, 14.927715981585443 19.275545056275337, 14.540149156470758 15.84320039526742 M15.349025499328757 15.813501757757315 C18.089002369309853 14.450397150741846, 21.084976674964228 15.702882493046937, 25.28821625700021 15.52226571005364 M24.314014917036072 15.72709146687404 C26.25148487767036 12.936998358550419, 27.730240990991426 13.143783830513025, 31.41796356992332 8.112035854861483" stroke="#2B4A7C" stroke-width="2.9" fill="none"></path></g><g><path d="M32.928623104543576 27.254074484709456 C33.958207684581595 27.041230286625776, 35.40321225962801 26.28858437863222, 36.254406822354255 26.945605623042063 C37.1056013850805 27.602626867451907, 38.21184495178713 29.664942932834162, 38.03579048090103 31.196201951168515 C37.85973601001493 32.72746096950287, 35.98153857503634 35.129191348872126, 35.19807999703763 36.13315973304818 C34.41462141903892 37.137128117224236, 34.23449474111202 37.09659725154015, 33.335039012908766 37.220012256224834 C32.43558328470551 37.343427260909515, 30.82907246910608 37.38494522945305, 29.80134562781807 36.87364976115627 C28.773618786530058 36.36235429285949, 27.678269094877997 35.0497532730783, 27.16867796518071 34.15223944644416 C26.65908683548342 33.254725619810024, 26.453314840589798 32.56345453552352, 26.743798849634345 31.488566801351453 C27.034282858678893 30.413679067179388, 27.885709764339797 28.54759675419789, 28.911582019447994 27.70291304141177 C29.937454274556192 26.858229328625647, 32.12687301373586 26.53908214349955, 32.899032380283536 26.42046452463473 C33.67119174683121 26.301846905769914, 33.398601834117656 26.986459440525298, 33.54453821873406 26.991207328222856" stroke="#2B4A7C" stroke-width="2.9" fill="none"></path></g>
</svg>
