<?xml version="1.0" encoding="UTF-8"?>
<!-- RTN V2 Ledger icon — 1.4 Sales -->
<!-- Generated with rough.js · roughness 1.1 · bowing 1.6 · stroke 2.9 · seed 104 -->
<svg xmlns="http://www.w3.org/2000/svg" viewBox="0 0 64 64" width="64" height="64" fill="none">
<g><path d="M22.204537351341173 10.714233684171518 C25.712889919443615 8.282847286496958, 31.91733888835598 7.951043732951143, 36.14786489977834 9.037421706677755 C40.3783909112007 10.123799680404366, 44.83455149773194 13.33512576994204, 47.58769341987532 17.232501526531188 C50.34083534201871 21.129877283120337, 52.607438808658934 27.269035353341714, 52.66671643263864 32.42167624621264 C52.72599405661834 37.57431713908357, 50.994143116553545 44.450277029584, 47.94335916375353 48.148346883756744 C44.89257521095351 51.84641673792949, 38.803468418004464 53.968737420212136, 34.36201271583851 54.61009537124909 C29.92055701367256 55.25145332228604, 25.120397343350067 54.75620523917359, 21.294624950757825 51.99649458997846 C17.468852558165583 49.23678394078333, 12.64929843461631 42.697942256082875, 11.407378360285051 38.05183147607832 C10.165458285953791 33.405720696073764, 11.489346033800649 28.674291516139636, 13.843104504770263 24.119829909951115 C16.196862975739876 19.565368303762593, 23.324141949277866 12.844611072624087, 25.529929186102734 10.725061838947191 C27.735716422927602 8.605512605270295, 27.101048574318582 11.111685027134484, 27.077827925719465 11.40253450788974" stroke="#2B4A7C" stroke-width="2.9" fill="none"></path></g><g><path d="M25.71595122171874 18.067080827229397 C27.905890999539857 16.514270979314208, 31.885135359525886 16.441571247481072, 34.5327815353155 17.14802862753732 C37.18042771110512 17.85448600759357, 39.83880480961731 19.81652121213198, 41.60182827645643 22.3058251075669 C43.36485174329555 24.79512900300182, 44.98571435816853 28.708581763104334, 45.11092233635022 32.083852000146834 C45.23613031453191 35.459122237189334, 44.31273048010374 40.17439464301513, 42.35307614554658 42.557446529821895 C40.39342181098942 44.940498416628664, 36.188674823820264 45.97815912712671, 33.35299632900728 46.38216332098746 C30.517317834194298 46.78616751484821, 27.79571377434408 46.789811428292026, 25.339005176668675 44.98147169298638 C22.88229657899327 43.17313195768074, 19.36291459989623 38.483297128121826, 18.612744742954845 35.5321249091536 C17.862574886013462 32.58095269018538, 19.232421744437204 30.117594589659817, 20.837986035020386 27.274438379177035 C22.443550325603567 24.431282168694253, 26.898306979016123 19.80527884775857, 28.246130486453925 18.473187646256903 C29.593953993891727 17.141096444755238, 28.993417749918834 19.120177119533622, 28.924927079647194 19.28189117016705" stroke="#2B4A7C" stroke-width="2.9" fill="none"></path></g><g><path d="M28.788438358299114 24.500822077405044 C29.82476694462407 23.71676671052931, 31.856957271799548 23.870782822694764, 33.11958359141051 24.244809683289446 C34.38220991102148 24.61883654388413, 35.467526457517 25.48774222404818, 36.36419627596489 26.74498324097315 C37.26086609441278 28.002224257898117, 38.316705463989415 29.96818487164663, 38.49960250209785 31.788255784839258 C38.68249954020629 33.60832669803189, 38.46649442321014 36.43299755476736, 37.461578504615495 37.66540872012891 C36.45666258602085 38.897819885490456, 33.9007304289091 38.98640312067697, 32.47010699052996 39.182722777008536 C31.039483552150827 39.3790424333401, 30.136615651463845 39.81921684377066, 28.87783787434067 38.843326658118315 C27.619060097217496 37.86743647246597, 25.23732874451615 34.79548264115591, 24.917440327790914 33.32738166309447 C24.597551911065676 31.85928068503304, 26.00761299124419 31.380484778989974, 26.958507373989242 30.034720789749713 C27.909401756734294 28.68895680050945, 30.0257013800371 25.895863151001233, 30.622806624261216 25.252797727652897 C31.219911868485333 24.60973230430456, 30.649240778569045 26.12760770038287, 30.541138839333954 26.176328249659697" stroke="#2B4A7C" stroke-width="2.9" fill="none"></path></g><g><path d="M32.125205494416456 29.27541134958487 C32.68649217215813 29.28095718599595, 33.3500616818169 29.26013345358955, 33.8344130226939 29.640893772387287 C34.31876436357091 30.021654091185024, 35.13663937704729 30.99129455722178, 35.03131353967847 31.55997326237129 C34.925987702309655 32.128651967520796, 33.728532022292946 32.534798615198845, 33.202457998481016 33.05296600328434 C32.676383974669086 33.571133391369834, 32.2578549349286 34.49652652396296, 31.874869396806876 34.66897759088425 C31.49188385868515 34.841428657805544, 31.256256166128672 34.237192972443, 30.904544769750654 34.087672404812075 C30.552833373372636 33.93815183718115, 29.787477341833835 34.3257378638538, 29.764601018538755 33.77185418509871 C29.741724695243676 33.21797050634362, 30.497215710979987 31.319264992905435, 30.767286829980183 30.764370332281523 C31.03735794898038 30.20947567165761, 31.10673260778082 30.67144882305598, 31.38502773253994 30.442486221355235 C31.663322857299057 30.21352361965449, 32.163404055405465 29.37212947033769, 32.4370575785349 29.390594722077054 C32.71071110166433 29.40905997381642, 32.87500157782341 30.491877212413677, 33.02694887131655 30.553277731791418" stroke="none" stroke-width="0" fill="#2B4A7C"></path><path d="M30.763608660386495 28.6367985953751 C31.058330052178206 28.346942537739015, 31.838842786832615 28.646704549617844, 32.21109919890016 28.80702607627295 C32.5833556109677 28.967347602928058, 32.65741894545252 29.133527160280025, 32.99714713279176 29.598727755305738 C33.336875320131 30.06392835033145, 34.02948546058857 30.777929727138105, 34.24946832293562 31.598229646427242 C34.46945118528267 32.418529565716376, 34.708199815207124 34.02781371232237, 34.31704430687409 34.52052727104056 C33.92588879854105 35.01324082975874, 32.42990903218049 34.49170283081641, 31.9025352729374 34.55451099873636 C31.375161513694305 34.617319166656316, 31.641481143897977 35.33812032514978, 31.152801751415524 34.89737627856027 C30.66412235893307 34.456632231970765, 29.0137378374861 32.42474475667781, 28.97045891804267 31.910046719199315 C28.92717999859924 31.39534868172082, 30.363093078477256 32.192342757845076, 30.893128234754936 31.80918805368929 C31.423163391032617 31.426033349533505, 32.03616920926487 29.811238774514376, 32.15066985570876 29.61111849426461 C32.26517050215266 29.410998214014842, 31.713698439844187 30.632384502357386, 31.5801321134183 30.608466372190684" stroke="#2B4A7C" stroke-width="2.9" fill="none"></path></g>
</svg>
