<?xml version="1.0" encoding="UTF-8"?>
<!-- RTN V2 Ledger icon — 1.3 Skills -->
<!-- Generated with rough.js · roughness 1.1 · bowing 1.6 · stroke 2.9 · seed 103 -->
<svg xmlns="http://www.w3.org/2000/svg" viewBox="0 0 64 64" width="64" height="64" fill="none">
<g><path d="M32.32794862631708 9.208140951953828 C29.331007139742376 17.959581342019142, 26.492471959613265 28.163107568450272, 20.085725417174398 50.45161242540926" stroke="#2B4A7C" stroke-width="2.9" fill="none"></path></g><g><path d="M32.32794862631708 9.208140951953828 C33.340268049374224 17.652069741435348, 34.510993778876966 27.855595967866478, 40.0857254171744 50.45161242540926" stroke="#2B4A7C" stroke-width="2.9" fill="none"></path></g><g><path d="M30.697179006691925 8.969491060824067 C30.99588095830455 8.916761422559523, 31.256935621431374 8.284729141458474, 31.949498123804727 8.420928076287588 C32.64206062617808 8.557127011116702, 34.460044573726336 9.562807194223101, 34.85255402093203 9.786684669798749 C35.24506346813773 10.010562145374397, 34.75291758396141 9.57086366953575, 34.304554807038905 9.764192929741473 C33.8561920301164 9.957522189947195, 32.62854049507532 10.403750678955145, 32.16237735939697 10.946660231033082 C31.69621422371862 11.489569783111019, 31.929822871698473 12.912384430428498, 31.507575992968803 13.021650242209095 C31.085329114239133 13.130916053989692, 29.946150740654502 12.276146131044028, 29.628896087018944 11.602255101716665 C29.311641433383386 10.928364072389302, 29.373758357254477 9.552136438410002, 29.604048071155447 8.978304066244913 C29.834337785056416 8.404471694079824, 30.752600847674174 8.348890931828572, 31.01063437042476 8.159260868726129 C31.268667893175348 7.969630805623686, 30.786794674201744 7.972161951308814, 31.152249207658972 7.840523687630256 C31.5177037411162 7.708885423951698, 33.00929984356724 7.409428610859031, 33.203361571168124 7.369431286654783" stroke="#2B4A7C" stroke-width="2.9" fill="none"></path></g><g><path d="M10.327948626317085 33.20814095195383 C17.792265764437616 33.11077820117921, 25.778735040314498 35.29578260834664, 52.0857254171744 34.45161242540926" stroke="#2B4A7C" stroke-width="2.9" fill="none"></path></g><g><path d="M32.32794862631708 33.20814095195383 C31.153764678902924 37.7965646320954, 30.319859953589738 43.99082994889468, 30.085725417174398 54.45161242540926" stroke="#2B4A7C" stroke-width="2.9" fill="none"></path></g>
</svg>
