<?xml version="1.0" encoding="UTF-8"?>
<!-- RTN V2 Ledger icon — 2.5 Change Requests DB -->
<!-- Generated with rough.js · roughness 1.1 · bowing 1.6 · stroke 2.9 · seed 205 -->
<svg xmlns="http://www.w3.org/2000/svg" viewBox="0 0 64 64" width="64" height="64" fill="none">
<g><path d="M34.25355467386835 15.130415444707019 C35.23331729399828 15.609375922784112, 35.779889777652244 16.062853636127308, 36.15413862026108 16.56767636562679 C36.528387462869915 17.072499095126275, 36.739253149302 17.556638377566948, 36.49904772952137 18.159351821703915 C36.25884230974074 18.76206526584088, 35.47486355165795 19.53544389150847, 34.71290610157732 20.18395703044859 C33.95094865149669 20.832470169388706, 32.678154155122265 22.00090228215631, 31.927303029037592 22.050430655344623 C31.17645190295292 22.099959028532936, 30.81909148456456 21.279358998581166, 30.207799345069294 20.48112726957846 C29.596507205574028 19.682895540575757, 28.41622898458492 17.894233154056053, 28.25955019206601 17.261040281328395 C28.102871399547098 16.627847408600736, 28.92554571564984 17.058829839569224, 29.267726589955842 16.681970033212515 C29.609907464261845 16.305110226855806, 29.609646052169346 15.21410442111349, 30.31263543790202 14.99988144318815 C31.015624823634695 14.78565846526281, 32.6946378519069 15.378389106946173, 33.48566290435189 15.396632165660474 C34.276687956796884 15.414875224374775, 35.09102732896152 15.211849964537238, 35.05878575257199 15.109339795473957" stroke="#2B4A7C" stroke-width="2.9" fill="none"></path></g><g><path d="M13.712907460145653 51.75600869078189 C15.955406760722399 44.82281101912856, 22.56859286885709 44.35890097682029, 33.44440495651215 32.47165579814464 M29.85183099526912 32.53397263567895 C38.72860573141575 40.4079869680494, 44.68692936899811 45.47411882601827, 47.85119678396732 50.71995888631791" stroke="#2B4A7C" stroke-width="2.9" fill="none"></path></g>
</svg>
