<?xml version="1.0" encoding="UTF-8"?>
<!-- RTN V2 Ledger icon — 2.4 Clients DB -->
<!-- Generated with rough.js · roughness 1.1 · bowing 1.6 · stroke 2.9 · seed 204 -->
<svg xmlns="http://www.w3.org/2000/svg" viewBox="0 0 64 64" width="64" height="64" fill="none">
<g><path d="M22.969917667657135 12.495735477656126 C28.45672375448942 13.649887670782208, 32.94340678193569 16.18798750473261, 50.117359078675506 14.840086745470762 M51.34936527763063 18.963384079728986 C50.370168759874744 25.35169408011393, 49.2540653820582 31.327855363240083, 48.21170473984375 36.1530764139446 M46.43643237426877 36.22713832780719 C34.57834555032253 34.72839995046556, 25.385825654590125 31.753622577166553, 20.838916052132845 32.71675250455737 M18.450504026447874 31.895805534361678 C21.057869787509684 24.69541832540322, 19.708139243706917 20.42528557569368, 22.005774289235912 15.721710076902026" stroke="#2B4A7C" stroke-width="2.9" fill="none"></path></g><g><path d="M16.969917667657135 22.495735477656126 C23.67302433885932 23.211947549304366, 29.3652099650383 25.3482131836772, 50.117359078675506 22.840086745470764 M51.47889523431659 27.151855695992708 C51.577577695935965 34.3040341489017, 51.52415288457274 40.9506835795939, 51.328020214289424 46.26376396492124 M49.43643237426877 46.22713832780719 C35.38399089242816 45.42003075778782, 23.968648074972627 43.18619435839653, 17.838916052132845 44.71675250455737 M15.397756122797727 43.88580356910825 C17.099374844878913 35.924562349170444, 14.460297109931709 31.14853917732835, 16.006328582018615 25.886982620507478" stroke="#2B4A7C" stroke-width="2.9" fill="none"></path></g><g><path d="M14.969917667657137 30.495735477656126 C22.080257531255484 30.998995142215488, 28.174277357012034 32.934343676799536, 50.117359078675506 29.840086745470764 M51.47889523431659 34.15185569599271 C51.59270533912778 42.01560602337122, 51.53928052776456 49.37382732853294, 51.328020214289424 55.26376396492124 M49.43643237426877 55.22713832780719 C34.657284050434825 54.77406452254653, 22.501000259071585 52.910698610109094, 15.838916052132845 54.71675250455737 M13.397756122797727 53.88580356910825 C15.126903886944055 45.21909439563751, 12.48782615199685 39.737603270262476, 14.006328582018615 33.88698262050748" stroke="#2B4A7C" stroke-width="2.9" fill="none"></path></g><g><path d="M20.581950600594283 39.09744128659368 C22.919350360780957 39.45716656036973, 24.646958098262548 40.618375681120156, 32.070415447205306 38.70405204728246" stroke="#2B4A7C" stroke-width="2.9" fill="none"></path></g><g><path d="M20.872925900891424 44.64616192989051 C24.37902554117143 45.18574984055459, 26.970437147393824 46.927563521680234, 38.10562317080796 44.05607807092368" stroke="#2B4A7C" stroke-width="2.9" fill="none"></path></g>
</svg>
