<?xml version="1.0" encoding="UTF-8"?>
<!-- RTN V2 Ledger icon — 2.7 Contacts DB -->
<!-- Generated with rough.js · roughness 1.1 · bowing 1.6 · stroke 2.9 · seed 207 -->
<svg xmlns="http://www.w3.org/2000/svg" viewBox="0 0 64 64" width="64" height="64" fill="none">
<g><path d="M33.59888704512268 13.476555117033422 C30.48987764264941 21.26799703892022, 24.94091079212278 28.885114762742816, 13.698496712185442 47.33479390349239" stroke="#2B4A7C" stroke-width="2.9" fill="none"></path></g><g><path d="M33.59888704512268 13.476555117033422 C37.72337875846326 21.299752161468568, 39.40791302375048 28.916869885291163, 49.698496712185445 47.33479390349239" stroke="#2B4A7C" stroke-width="2.9" fill="none"></path></g><g><path d="M15.598887045122684 45.47655511703342 C23.22555543612689 46.88585095313042, 28.526840259321034 48.073189907340705, 49.698496712185445 47.33479390349239" stroke="#2B4A7C" stroke-width="2.9" fill="none"></path></g><g><path d="M32.76577372147367 10.764052747495857 C33.6840323196227 11.023024887442158, 34.835913364090935 11.250378946970974, 35.32690908094868 11.822978550407237 C35.81790479780643 12.3955781538435, 35.80554470120485 13.16620773469892, 35.711748022620164 14.199650368113431 C35.617951344035475 15.233093001527942, 35.46582703779181 17.37322685931265, 34.76412900944054 18.023634350894305 C34.062430981089264 18.67404184247596, 32.21012720362616 18.066406453210767, 31.501559852512507 18.10209531760337 C30.792992501398853 18.137784181995976, 31.063483484183422 18.665154464980656, 30.512724902758613 18.237767537249937 C29.961966321333804 17.810380609519218, 28.500428755509017 16.609356243474853, 28.197008363963665 15.537773751219065 C27.893587972418313 14.466191258963276, 28.33468755894166 12.677283210890016, 28.6922025534865 11.808272583715203 C29.04971754803134 10.93926195654039, 29.454720743975848 10.71317134006808, 30.342098331232712 10.323709988170188 C31.229475918489577 9.934248636272297, 33.19760942788359 9.44175829842273, 34.016468077027675 9.471504472327851 C34.83532672617176 9.501250646232972, 35.19739067098014 10.23928461284781, 35.25525022609722 10.502187031600918" stroke="none" stroke-width="0" fill="#2B4A7C"></path><path d="M31.53640704506605 11.010545104968031 C32.10222770267704 10.8919719754991, 33.349980759230725 10.824048664397804, 33.88146360209007 11.25616844259354 C34.41294644494942 11.688288220789275, 34.572918302716026 12.938149195497552, 34.72530410222212 13.603263774142441 C34.87768990172821 14.26837835278733, 34.81744086929432 14.405540251381497, 34.79577839912664 15.246855914462873 C34.774115928958956 16.08817157754425, 35.11785251597381 18.22223743999045, 34.595329281216 18.651157752630702 C34.0728060464582 19.080078065270953, 32.49914000556671 18.210413650207187, 31.660638990579827 17.82037779030439 C30.822137975592945 17.430341930401596, 30.168140840580026 17.11831118412229, 29.56432319129472 16.31094259321392 C28.96050554200941 15.503574002305548, 28.018848304749152 13.960259839720065, 28.03773309486799 12.976166244854166 C28.056617884986824 11.992072649988268, 29.11355692963478 10.733510542515713, 29.677631932007742 10.406381024018529 C30.241706934380705 10.079251505521345, 30.85473432542116 11.150683669902028, 31.422183109105767 11.013389133871065 C31.989631892790374 10.876094597840103, 33.04215030036936 9.654225044736643, 33.08232463411539 9.582613807832757" stroke="#2B4A7C" stroke-width="2.9" fill="none"></path></g><g><path d="M14.765773721473671 42.76405274749586 C15.684032319622704 43.02302488744216, 16.835913364090935 43.250378946970976, 17.326909080948685 43.822978550407235 C17.817904797806435 44.395578153843495, 17.80554470120486 45.16620773469892, 17.711748022620167 46.19965036811343 C17.617951344035475 47.23309300152794, 17.46582703779181 49.37322685931265, 16.764129009440534 50.023634350894305 C16.062430981089257 50.67404184247596, 14.210127203626158 50.06640645321077, 13.501559852512505 50.10209531760337 C12.792992501398853 50.137784181995976, 13.063483484183424 50.66515446498065, 12.512724902758617 50.23776753724994 C11.96196632133381 49.81038060951922, 10.500428755509017 48.60935624347485, 10.197008363963663 47.53777375121906 C9.89358797241831 46.46619125896328, 10.334687558941653 44.67728321089002, 10.692202553486494 43.80827258371521 C11.049717548031335 42.9392619565404, 11.45472074397585 42.71317134006809, 12.342098331232712 42.323709988170194 C13.229475918489575 41.9342486362723, 15.197609427883586 41.44175829842273, 16.01646807702767 41.47150447232785 C16.835326726171754 41.501250646232975, 17.197390670980138 42.23928461284781, 17.255250226097218 42.50218703160092" stroke="none" stroke-width="0" fill="#FFFFFF"></path><path d="M13.536407045066047 43.010545104968024 C14.10222770267704 42.89197197549909, 15.349980759230728 42.82404866439781, 15.881463602090074 43.25616844259354 C16.41294644494942 43.688288220789275, 16.572918302716023 44.93814919549755, 16.72530410222212 45.60326377414244 C16.877689901728214 46.26837835278733, 16.81744086929433 46.405540251381495, 16.795778399126643 47.24685591446287 C16.774115928958956 48.088171577544244, 17.117852515973805 50.22223743999045, 16.595329281216003 50.6511577526307 C16.0728060464582 51.08007806527095, 14.499140005566712 50.210413650207194, 13.660638990579832 49.8203777903044 C12.822137975592952 49.4303419304016, 12.168140840580024 49.11831118412229, 11.564323191294717 48.310942593213916 C10.96050554200941 47.50357400230554, 10.018848304749147 45.96025983972007, 10.037733094867985 44.97616624485417 C10.056617884986823 43.99207264998827, 11.113556929634775 42.73351054251572, 11.67763193200774 42.40638102401853 C12.241706934380705 42.07925150552134, 12.85473432542116 43.15068366990203, 13.422183109105768 43.013389133871065 C13.989631892790376 42.8760945978401, 15.042150300369354 41.65422504473664, 15.082324634115384 41.58261380783276" stroke="#2B4A7C" stroke-width="2.9" fill="none"></path></g><g><path d="M13.536407045066047 43.010545104968024 C14.10222770267704 42.89197197549909, 15.349980759230728 42.82404866439781, 15.881463602090074 43.25616844259354 C16.41294644494942 43.688288220789275, 16.572918302716023 44.93814919549755, 16.72530410222212 45.60326377414244 C16.877689901728214 46.26837835278733, 16.81744086929433 46.405540251381495, 16.795778399126643 47.24685591446287 C16.774115928958956 48.088171577544244, 17.117852515973805 50.22223743999045, 16.595329281216003 50.6511577526307 C16.0728060464582 51.08007806527095, 14.499140005566712 50.210413650207194, 13.660638990579832 49.8203777903044 C12.822137975592952 49.4303419304016, 12.168140840580024 49.11831118412229, 11.564323191294717 48.310942593213916 C10.96050554200941 47.50357400230554, 10.018848304749147 45.96025983972007, 10.037733094867985 44.97616624485417 C10.056617884986823 43.99207264998827, 11.113556929634775 42.73351054251572, 11.67763193200774 42.40638102401853 C12.241706934380705 42.07925150552134, 12.85473432542116 43.15068366990203, 13.422183109105768 43.013389133871065 C13.989631892790376 42.8760945978401, 15.042150300369354 41.65422504473664, 15.082324634115384 41.58261380783276" stroke="#2B4A7C" stroke-width="2.9" fill="none"></path></g><g><path d="M50.76577372147367 42.76405274749586 C51.6840323196227 43.02302488744216, 52.835913364090935 43.250378946970976, 53.32690908094868 43.822978550407235 C53.81790479780643 44.395578153843495, 53.80554470120485 45.16620773469892, 53.711748022620164 46.19965036811343 C53.617951344035475 47.23309300152794, 53.46582703779181 49.37322685931265, 52.76412900944054 50.023634350894305 C52.062430981089264 50.67404184247596, 50.21012720362616 50.06640645321077, 49.50155985251251 50.10209531760337 C48.79299250139886 50.137784181995976, 49.06348348418342 50.66515446498065, 48.51272490275861 50.23776753724994 C47.961966321333804 49.81038060951922, 46.50042875550901 48.60935624347485, 46.19700836396366 47.53777375121906 C45.89358797241831 46.46619125896328, 46.33468755894165 44.67728321089002, 46.692202553486496 43.80827258371521 C47.04971754803134 42.9392619565404, 47.454720743975855 42.71317134006809, 48.34209833123272 42.323709988170194 C49.229475918489584 41.9342486362723, 51.19760942788359 41.44175829842273, 52.016468077027675 41.47150447232785 C52.83532672617176 41.501250646232975, 53.19739067098014 42.23928461284781, 53.25525022609722 42.50218703160092" stroke="none" stroke-width="0" fill="#FFFFFF"></path><path d="M49.53640704506605 43.010545104968024 C50.10222770267704 42.89197197549909, 51.349980759230725 42.82404866439781, 51.88146360209007 43.25616844259354 C52.41294644494942 43.688288220789275, 52.572918302716026 44.93814919549755, 52.72530410222212 45.60326377414244 C52.87768990172821 46.26837835278733, 52.81744086929432 46.405540251381495, 52.79577839912664 47.24685591446287 C52.774115928958956 48.088171577544244, 53.11785251597381 50.22223743999045, 52.595329281216 50.6511577526307 C52.0728060464582 51.08007806527095, 50.49914000556671 50.210413650207194, 49.66063899057983 49.8203777903044 C48.822137975592945 49.4303419304016, 48.16814084058002 49.11831118412229, 47.56432319129472 48.310942593213916 C46.960505542009415 47.50357400230554, 46.01884830474915 45.96025983972007, 46.03773309486799 44.97616624485417 C46.05661788498683 43.99207264998827, 47.113556929634775 42.73351054251572, 47.67763193200774 42.40638102401853 C48.24170693438071 42.07925150552134, 48.85473432542116 43.15068366990203, 49.422183109105774 43.013389133871065 C49.989631892790385 42.8760945978401, 51.04215030036936 41.65422504473664, 51.08232463411539 41.58261380783276" stroke="#2B4A7C" stroke-width="2.9" fill="none"></path></g><g><path d="M49.53640704506605 43.010545104968024 C50.10222770267704 42.89197197549909, 51.349980759230725 42.82404866439781, 51.88146360209007 43.25616844259354 C52.41294644494942 43.688288220789275, 52.572918302716026 44.93814919549755, 52.72530410222212 45.60326377414244 C52.87768990172821 46.26837835278733, 52.81744086929432 46.405540251381495, 52.79577839912664 47.24685591446287 C52.774115928958956 48.088171577544244, 53.11785251597381 50.22223743999045, 52.595329281216 50.6511577526307 C52.0728060464582 51.08007806527095, 50.49914000556671 50.210413650207194, 49.66063899057983 49.8203777903044 C48.822137975592945 49.4303419304016, 48.16814084058002 49.11831118412229, 47.56432319129472 48.310942593213916 C46.960505542009415 47.50357400230554, 46.01884830474915 45.96025983972007, 46.03773309486799 44.97616624485417 C46.05661788498683 43.99207264998827, 47.113556929634775 42.73351054251572, 47.67763193200774 42.40638102401853 C48.24170693438071 42.07925150552134, 48.85473432542116 43.15068366990203, 49.422183109105774 43.013389133871065 C49.989631892790385 42.8760945978401, 51.04215030036936 41.65422504473664, 51.08232463411539 41.58261380783276" stroke="#2B4A7C" stroke-width="2.9" fill="none"></path></g>
</svg>
