<?xml version="1.0" encoding="UTF-8"?>
<!-- RTN V2 Ledger icon — 2.3 Projects DB -->
<!-- Generated with rough.js · roughness 1.1 · bowing 1.6 · stroke 2.9 · seed 203 -->
<svg xmlns="http://www.w3.org/2000/svg" viewBox="0 0 64 64" width="64" height="64" fill="none">
<g><path d="M6.8269278751686215 17.63546226453036 C17.2409509383142 18.833000867451727, 25.608341806940736 19.551019262160363, 53.79031320083887 17.608517692796887 M55.705959473364054 17.369738756306468 C53.09099175758213 25.562329874001442, 53.814299420784415 35.71069358233362, 55.40484364461154 47.807569043524566 M54.94605770576745 46.9515151007101 C37.74889006726443 48.1635246325925, 21.9323180174455 45.05831247462779, 7.109313522465527 45.4730429334566 M9.942865161411465 45.44420649278909 C7.139350370918214 36.71003028731793, 11.048503409181535 29.074870080687102, 10.311199520342052 16.912046431191264" stroke="#2B4A7C" stroke-width="2.9" fill="none"></path></g><g><path d="M21.82692787516862 17.63546226453036 C22.763991364742818 23.76169520560652, 21.88940244009644 30.10526651795954, 22.790313200838863 45.60851769279689" stroke="#2B4A7C" stroke-width="2.9" fill="none"></path></g><g><path d="M8.565385575033725 13.927092452906072 C8.76622568896562 14.830878874398767, 8.591307904036343 15.778132970146833, 8.758062640167772 17.921703538559377" stroke="#2B4A7C" stroke-width="2.9" fill="none"></path></g><g><path d="M8.565385575033725 13.927092452906072 C9.603444645814598 14.087824855808913, 10.232177277691662 14.23142853475064, 12.758062640167772 13.921703538559377" stroke="#2B4A7C" stroke-width="2.9" fill="none"></path></g><g><path d="M54.56538557503372 45.927092452906074 C54.76622568896562 46.83087887439877, 54.59130790403634 47.778132970146835, 54.75806264016777 49.92170353855938" stroke="#2B4A7C" stroke-width="2.9" fill="none"></path></g><g><path d="M50.56538557503372 49.927092452906074 C51.6034446458146 50.08782485580892, 52.23217727769166 50.23142853475064, 54.75806264016777 49.92170353855938" stroke="#2B4A7C" stroke-width="2.9" fill="none"></path></g>
</svg>
