<?xml version="1.0" encoding="UTF-8"?>
<!-- RTN V2 Ledger icon — 2.1 Skills DB -->
<!-- Generated with rough.js · roughness 1.1 · bowing 1.6 · stroke 2.9 · seed 201 -->
<svg xmlns="http://www.w3.org/2000/svg" viewBox="0 0 64 64" width="64" height="64" fill="none">
<g><path d="M10.34094829019159 19.91491583827883 C18.54218853060156 19.4088001790002, 27.036172263137995 17.69215829395801, 54.53622144516557 16.745379587449133 M53.16008795145899 16.205504876933993 C54.79046791457087 26.353267375193536, 52.667240526904166 34.57940568979829, 52.55849050525576 48.495179200731215 M54.965308368764816 50.400268646515904 C40.977438976056874 49.0929364920929, 25.88562728445977 47.90403184307367, 9.450108463130892 51.38562379125506 M9.633083238638937 48.561012340150775 C11.835811610545218 36.93452294226736, 11.24142619522959 26.634645444713534, 9.520941396988928 19.76217405255884" stroke="#2B4A7C" stroke-width="2.9" fill="none"></path></g><g><path d="M14.34094829019159 23.91491583827883 C20.93495962638408 23.512139331300556, 27.821714454703034 21.795497446258366, 50.53622144516557 20.745379587449133" stroke="#2B4A7C" stroke-width="2.9" fill="none"></path></g><g><path d="M32.305432639901284 33.435313046971864 C32.935571765542086 33.491889880506534, 33.92960389232336 33.5703717420893, 34.26203000139293 33.93194293521443 C34.5944561104625 34.29351412833956, 34.49399489872512 34.88817048416061, 34.2999892943187 35.60474020572263 C34.10598368991228 36.321309927284645, 33.3617933465331 37.75905417652564, 33.0979963749544 38.23136126458651 C32.8341994033757 38.703668352647384, 32.926704815288495 38.585104721313705, 32.7172074648465 38.438582734087845 C32.50771011440451 38.292060746861985, 32.16425109776773 37.75719760023079, 31.841012272302436 37.35222934123134 C31.51777344683714 36.9472610822319, 30.926837899334654 36.22214487927279, 30.777774512054716 36.00877318009117 C30.628711124774778 35.79540148090955, 30.880533579626835 36.258570835270525, 30.946631948622816 36.07199914614162 C31.012730317618797 35.88542745701272, 30.953808459175548 35.07605083123626, 31.174364726030603 34.889343045317744 C31.39492099288566 34.70263525939923, 31.868224177217073 35.18624110289076, 32.26996954975316 34.95175243063052 C32.67171492228924 34.71726375837028, 33.429843996561466 33.724539609505086, 33.584836961247106 33.482411011756284" stroke="none" stroke-width="0" fill="#2B4A7C"></path><path d="M32.54941617327832 34.434862110825094 C32.97165986564549 34.3230051658482, 33.820299909626335 34.26230542256247, 34.014265158960434 34.63953113771532 C34.20823040829453 35.01675685286818, 33.73719257717642 36.273177418638525, 33.7132076692829 36.69821640174223 C33.68922276138938 37.12325538484593, 34.34618253101893 36.92995818479402, 33.87035571159931 37.18976503633757 C33.394528892179686 37.44957188788112, 31.483915480099206 38.35642627372799, 30.858246752765144 38.25705751100356 C30.23257802543108 38.15768874827913, 30.415177181942013 37.075574728991604, 30.116343347594924 36.59355245999096 C29.817509513247835 36.111530190990315, 29.12697749633346 35.62440636805218, 29.065243746682608 35.3649238969997 C29.003509997031756 35.10544142594722, 29.473190395640113 35.26926702238477, 29.74594084968982 35.0366576336761 C30.018691303739526 34.80404824496743, 30.037955020752126 34.01482298407593, 30.701746470980854 33.96926756474768 C31.365537921209583 33.92371214541944, 33.178631909795705 34.66961188686802, 33.72868955106219 34.76332511770664 C34.27874719232867 34.85703834854527, 34.11443349951071 34.70585843130263, 34.00209231857975 34.53154694977943" stroke="#2B4A7C" stroke-width="2.9" fill="none"></path></g>
</svg>
