<?xml version="1.0" encoding="UTF-8"?>
<svg xmlns="http://www.w3.org/2000/svg" viewBox="0 0 1000 1000" role="img" aria-label="RTN">
  <title>RTN — favicon (small cut)</title>
  <rect width="1000" height="1000" rx="200" ry="200" fill="#2B4A7C"/>
  <g fill="#FAF7F2" transform="translate(-85.11 680.00) scale(0.2510 -0.2510)">
    <path d="M1439.1953125 914.0003051757812Q1439.1953125 820.8001708984375 1396.1953125 743.5001220703125Q1353.1953125 666.2000732421875 1273.9953308105469 613.7000732421875Q1194.7953491210938 561.2000732421875 1084.1954345703125 541.2000732421875Q1036.7958374023438 532.6001586914062 997.6961059570312 522.5002746582031Q958.5963745117188 512.400390625 918.9966430664062 504.9004821777344Q879.3969116210938 497.40057373046875 829.1973266601562 497.40057373046875Q767.5972900390625 497.40057373046875 713.6971435546875 506.0005798339844Q659.7969970703125 514.6005859375 615.2968444824219 530.8005981445312Q570.7966918945312 547.0006103515625 535.5966796875 568.0006713867188L538.996826171875 677.599609375Q566.796875 658.1995849609375 600.3971557617188 644.8995361328125Q633.9974365234375 631.5994873046875 674.2977600097656 624.9994506835938Q714.5980834960938 618.3994140625 762.1982421875 618.3994140625Q894.3990478515625 618.3994140625 968.1995239257812 689.8997802734375Q1042 761.400146484375 1042 907.00048828125Q1042 1017.8006591796875 997.8997497558594 1103.5007934570312Q953.7994995117188 1189.200927734375 874.8989562988281 1238.4010009765625Q795.9984130859375 1287.60107421875 692.5975341796875 1287.60107421875H629.196044921875V195.9984130859375Q629.196044921875 172.198486328125 639.3960876464844 157.69851684570312Q649.5961303710938 143.19854736328125 671.796142578125 133.9986572265625L719.9973754882812 120.59869384765625Q747.9971923828125 108.39886474609375 757.6971435546875 94.19900512695312Q767.3970947265625 79.9991455078125 767.3970947265625 57.599365234375Q767.3970947265625 0 693.5978393554688 0H170.5997314453125Q132.80010986328125 0 114.80029296875 15.6998291015625Q96.80047607421875 31.399658203125 96.80047607421875 57.599365234375Q96.80047607421875 103.79888916015625 144.2001953125 120.59869384765625L191.4007568359375 133.9986572265625Q216.80072021484375 142.59857177734375 229.40072631835938 157.39852905273438Q242.000732421875 172.198486328125 242.000732421875 195.9984130859375V1204.0015869140625Q242.000732421875 1227.801513671875 229.40072631835938 1242.6014709472656Q216.80072021484375 1257.4014282226562 191.4007568359375 1266.0013427734375L144.2001953125 1279.4013061523438Q96.80047607421875 1296.2011108398438 96.80047607421875 1342.400634765625Q96.80047607421875 1369.600341796875 114.80029296875 1384.8001708984375Q132.80010986328125 1400 170.5997314453125 1400H707.7973022460938Q943.796630859375 1400 1106.9961853027344 1338.2000122070312Q1270.1957397460938 1276.4000244140625 1354.6955261230469 1166.9000854492188Q1439.1953125 1057.400146484375 1439.1953125 914.0003051757812ZM806.398681640625 545.6001586914062 1182.9942626953125 588.19970703125 1423.1953735351562 191.7987060546875Q1441.3953857421875 161.5987548828125 1458.2955322265625 145.79873657226562Q1475.1956787109375 129.99871826171875 1503.1959838867188 119.79876708984375Q1531.59619140625 108.99884033203125 1542.9961853027344 94.49899291992188Q1554.3961791992188 79.9991455078125 1554.3961791992188 57.599365234375Q1554.3961791992188 31.399658203125 1536.0963439941406 15.6998291015625Q1517.7965087890625 0 1479.796875 0H1018.9990234375Q947.7996826171875 0 947.7996826171875 57.599365234375Q947.7996826171875 71.999267578125 954.5997009277344 82.899169921875Q961.3997192382812 93.799072265625 977.19970703125 102.7989501953125L997.8002319335938 111.19891357421875Q1017.4003295898438 122.998779296875 1020.100341796875 136.3988037109375Q1022.8003540039062 149.798828125 1009.0003051757812 174.798828125Z" transform="translate(0 0)"/>
    <path d="M380.79815673828125 1400H1065.1990356445312Q1107.1987915039062 1400 1135.3985290527344 1408.800048828125Q1163.5982666015625 1417.60009765625 1186.0980529785156 1425.900146484375Q1208.5978393554688 1434.2001953125 1232.5977172851562 1434.2001953125Q1273.9972534179688 1434.2001953125 1294.7970581054688 1414.3004150390625Q1315.5968627929688 1394.400634765625 1328.1967163085938 1347.0011596679688L1393.5968017578125 1020.0015258789062Q1400.5967407226562 985.40185546875 1388.296875 963.7020568847656Q1375.9970092773438 942.0022583007812 1345.997314453125 936.8023071289062Q1318.3975830078125 930.8023681640625 1297.1977844238281 940.7023010253906Q1275.9979858398438 950.6022338867188 1261.3981323242188 980.4019775390625Q1206.1983642578125 1097.4019165039062 1166.6985168457031 1159.9017639160156Q1127.1986694335938 1222.401611328125 1090.0986633300781 1246.7014770507812Q1052.9986572265625 1271.0013427734375 1003.1984252929688 1271.0013427734375H916.5962524414062V195.9984130859375Q916.5962524414062 172.198486328125 929.5962524414062 157.39852905273438Q942.5962524414062 142.59857177734375 967.1962280273438 133.9986572265625L1014.3967895507812 120.59869384765625Q1061.7965087890625 103.79888916015625 1061.7965087890625 57.599365234375Q1061.7965087890625 0 987.9972534179688 0H457.99993896484375Q420.2003173828125 0 402.20050048828125 15.6998291015625Q384.20068359375 31.399658203125 384.20068359375 57.599365234375Q384.20068359375 103.79888916015625 431.60040283203125 120.59869384765625L478.80096435546875 133.9986572265625Q504.200927734375 142.59857177734375 516.8009338378906 157.39852905273438Q529.4009399414062 172.198486328125 529.4009399414062 195.9984130859375V1271.0013427734375H442.79876708984375Q393.99853515625 1271.0013427734375 356.49853515625 1246.7014770507812Q318.99853515625 1222.401611328125 279.4986877441406 1159.9017639160156Q239.99884033203125 1097.4019165039062 184.59906005859375 980.4019775390625Q170.19921875 950.6022338867188 148.8994140625 940.7023010253906Q127.599609375 930.8023681640625 99.9998779296875 936.8023071289062Q70.8001708984375 942.0022583007812 58.50030517578125 963.7020568847656Q46.200439453125 985.40185546875 52.400390625 1020.0015258789062L117.80047607421875 1347.0011596679688Q130.40032958984375 1394.400634765625 151.20013427734375 1414.3004150390625Q171.99993896484375 1434.2001953125 213.39947509765625 1434.2001953125Q237.599365234375 1434.2001953125 259.9991455078125 1425.900146484375Q282.39892578125 1417.60009765625 310.69866943359375 1408.800048828125Q338.9984130859375 1400 380.79815673828125 1400Z" transform="translate(1626.0 0)"/>
    <path d="M547.1998291015625 57.599365234375Q547.1998291015625 31.399658203125 529.2999877929688 16.099822998046875Q511.400146484375 0.79998779296875 473.4005126953125 0H152.39990234375Q114.4002685546875 0.79998779296875 96.10043334960938 16.099822998046875Q77.80059814453125 31.399658203125 77.80059814453125 57.599365234375Q77.80059814453125 101.39886474609375 129.40020751953125 122.5986328125L163.6009521484375 134.39874267578125Q209.0009765625 153.39862060546875 226.50091552734375 177.3984375Q244.0008544921875 201.39825439453125 244.0008544921875 253.79791259765625V1059.6015625Q244.0008544921875 1094.8013916015625 236.600830078125 1115.3013916015625Q229.2008056640625 1135.8013916015625 201.40069580078125 1170.8014526367188L120.80047607421875 1274.6015014648438Q101.60064697265625 1301.2012329101562 94.30072021484375 1316.0010681152344Q87.00079345703125 1330.8009033203125 87.00079345703125 1346.6007080078125Q87.00079345703125 1372.2003784179688 104.6005859375 1386.1001892089844Q122.20037841796875 1400 150.800048828125 1400H432.79669189453125Q467.99639892578125 1400 490.7962341308594 1388.0000915527344Q513.5960693359375 1376.0001831054688 537.1959228515625 1343.0004272460938L1249.7999267578125 375.3968505859375L1195.80029296875 227.79864501953125V1146.2020874023438Q1195.80029296875 1197.0017700195312 1180.3003234863281 1221.1015930175781Q1164.8003540039062 1245.201416015625 1115.400390625 1265.6012573242188L1081.9996337890625 1277.4013671875Q1030.4000244140625 1301.0010986328125 1030.4000244140625 1342.400634765625Q1030.4000244140625 1369.600341796875 1048.6998596191406 1384.8001708984375Q1066.9996948242188 1400 1104.1993408203125 1400H1425.199951171875Q1463.1995849609375 1400 1481.4994201660156 1384.8001708984375Q1499.7992553710938 1369.600341796875 1499.7992553710938 1342.400634765625Q1499.7992553710938 1299.401123046875 1448.1996459960938 1277.4013671875L1413.9989013671875 1265.6012573242188Q1368.598876953125 1247.6013793945312 1351.0989379882812 1223.5015563964844Q1333.5989990234375 1199.4017333984375 1333.5989990234375 1146.2020874023438V328.19757080078125Q1333.5989990234375 291.79779052734375 1339.7989807128906 264.6980285644531Q1345.9989624023438 237.5982666015625 1362.3988647460938 214.9984130859375L1424.1988525390625 132.19854736328125Q1446.5986328125 102.99884033203125 1451.2986145019531 87.79898071289062Q1455.9985961914062 72.59912109375 1455.9985961914062 56.3992919921875Q1455.9985961914062 30.79962158203125 1438.3988037109375 15.399810791015625Q1420.7990112304688 0 1390.1992797851562 0H1062.6030883789062Q1005.4036254882812 0 1005.4036254882812 45.99957275390625Q1005.4036254882812 63.19952392578125 998.503662109375 79.19943237304688Q991.6036987304688 95.1993408203125 959.8038330078125 138.39910888671875L262.6009521484375 1086.4013671875L381.799560546875 1164.6007080078125V252.9979248046875Q381.799560546875 203.7982177734375 397.69952392578125 179.79840087890625Q413.5994873046875 155.798583984375 462.199462890625 134.39874267578125L495.6002197265625 122.5986328125Q547.1998291015625 100.598876953125 547.1998291015625 57.599365234375Z" transform="translate(3112.0 0)"/>
  </g>
</svg>
