<?xml version="1.0" encoding="UTF-8"?>
<svg xmlns="http://www.w3.org/2000/svg" viewBox="0 0 5047 1581" role="img" aria-label="Run The Numbers">
  <title>RTN — Run The Numbers</title>
  <g fill="#1B1A17" transform="translate(229 1510) scale(1 -1)">
    <path d="M1321 921Q1321 825 1278.0 746.5Q1235 668 1156.0 615.5Q1077 563 969 543Q932 536 899.5 529.0Q867 522 834.5 517.0Q802 512 762 512Q699 512 641.5 520.5Q584 529 536.0 545.5Q488 562 453 585L460 667Q489 646 529.5 631.5Q570 617 618.0 609.5Q666 602 717 602Q869 602 954.5 683.0Q1040 764 1040 919Q1040 1034 989.5 1123.5Q939 1213 847.0 1264.5Q755 1316 630 1316H530V155Q530 133 541.0 119.0Q552 105 575 99L653 87Q676 79 684.5 68.5Q693 58 693 41Q693 0 639 0H162Q134 0 120.5 11.5Q107 23 107 41Q107 75 147 87L209 99Q233 105 246.0 119.0Q259 133 259 155V1246Q259 1267 246.0 1281.0Q233 1295 209 1301L147 1313Q107 1325 107 1359Q107 1378 120.5 1389.0Q134 1400 162 1400H639Q858 1400 1010.0 1338.5Q1162 1277 1241.5 1169.0Q1321 1061 1321 921ZM771 549 1038 580 1306 158Q1325 129 1345.5 112.5Q1366 96 1402 87Q1435 79 1446.0 68.5Q1457 58 1457 41Q1457 23 1443.0 11.5Q1429 0 1400 0H992Q938 0 938 41Q938 53 945.0 61.0Q952 69 967 75L1001 83Q1023 91 1026.0 105.0Q1029 119 1014 144Z" transform="translate(0 0)"/>
    <path d="M331 1400H1041Q1077 1400 1098.5 1410.0Q1120 1420 1137.0 1429.5Q1154 1439 1175 1439Q1204 1439 1219.5 1424.5Q1235 1410 1244 1376L1312 1057Q1317 1031 1308.0 1014.5Q1299 998 1277 994Q1257 990 1241.0 998.0Q1225 1006 1214 1029Q1165 1146 1128.5 1205.0Q1092 1264 1054.5 1285.0Q1017 1306 962 1306H822V154Q822 133 835.0 119.0Q848 105 872 99L933 87Q973 75 973 41Q973 0 919 0H454Q426 0 413.0 11.5Q400 23 400 41Q400 75 439 87L501 99Q525 105 538.0 119.0Q551 133 551 154V1306H411Q356 1306 318.5 1285.0Q281 1264 245.0 1204.5Q209 1145 158 1029Q148 1006 132.0 998.0Q116 990 95 994Q74 998 65.0 1014.5Q56 1031 61 1057L129 1376Q137 1410 153.0 1424.5Q169 1439 198 1439Q219 1439 236.0 1429.5Q253 1420 274.5 1410.0Q296 1400 331 1400Z" transform="translate(1565 0)"/>
    <path d="M540 41Q540 23 526.5 11.5Q513 0 485 0H147Q119 0 105.0 11.5Q91 23 91 41Q91 72 132 87L185 102Q231 118 247.5 137.5Q264 157 264 201V1100Q264 1131 256.0 1151.0Q248 1171 218 1207L132 1313Q117 1333 111.5 1343.5Q106 1354 106 1365Q106 1382 118.5 1391.0Q131 1400 151 1400H352Q379 1400 397.5 1390.5Q416 1381 436 1354L1245 295L1201 193V1199Q1201 1242 1186.0 1262.0Q1171 1282 1122 1298L1069 1313Q1028 1330 1028 1359Q1028 1378 1042.0 1389.0Q1056 1400 1083 1400H1421Q1449 1400 1463.0 1389.0Q1477 1378 1477 1359Q1477 1329 1436 1313L1383 1298Q1337 1283 1320.5 1263.5Q1304 1244 1304 1199V266Q1304 236 1310.0 215.0Q1316 194 1330 175L1391 95Q1408 73 1412.5 61.5Q1417 50 1417 38Q1417 21 1404.5 10.5Q1392 0 1369 0H1134Q1091 0 1091 35Q1091 51 1085.0 64.5Q1079 78 1051 115L284 1123L367 1184V201Q367 158 382.5 138.5Q398 119 446 102L499 87Q540 71 540 41Z" transform="translate(3038 0)"/>
  </g>
</svg>
