<?xml version="1.0" encoding="UTF-8"?>
<svg xmlns="http://www.w3.org/2000/svg" viewBox="0 0 4516 1499" role="img" aria-label="Run The Numbers">
  <title>RTN — Run The Numbers</title>
  <g fill="#1B1A17" transform="translate(229 1499) scale(1 -1)">
    <path d="M1201 914Q1201 812.5 1156.75 731.75Q1112.5 651 1032.25 598.5Q952 546 841.5 527Q822.5 524 802.25 521.5Q782 519 761.25 518.0Q740.5 517 718.5 517Q643.5 517 584.5 526.5Q525.5 536 479.5 555.25Q433.5 574.5 397 604L406 618Q440.5 590 481.0 573.5Q521.5 557 566.0 550.0Q610.5 543 656.5 543Q792.5 543 874.25 633.5Q956 724 956 906Q956 1044 903.0 1151.5Q850 1259 757.75 1320.5Q665.5 1382 547.5 1382H448V64Q448 46 456.75 37.75Q465.5 29.5 485 26L572 13Q578 12.5 580.5 11.0Q583 9.5 583 6Q583 0 574 0H79Q74.5 0 72.25 2.0Q70 4 70 6Q70 11.5 81 13L168 26Q187.5 29.5 196.25 37.75Q205 46 205 64V1347Q205 1359 196.0 1365.25Q187 1371.5 168 1374L81 1387Q70 1388.5 70 1394Q70 1396.5 72.25 1398.25Q74.5 1400 79 1400H546.5Q753 1400 899.25 1339.75Q1045.5 1279.5 1123.25 1170.25Q1201 1061 1201 914ZM675.5 533 902 559 1193.5 80Q1216.5 43.5 1242.5 31.5Q1268.5 19.5 1300 13Q1306 11.5 1308.5 10.5Q1311 9.5 1311 6Q1311 4 1308.75 2.0Q1306.5 0 1302 0H872.5Q863.5 0 863.5 6Q863.5 9.5 866.25 10.25Q869 11 874.5 13L921.5 21Q945.5 27.5 950.25 42.75Q955 58 937.5 88Z" transform="translate(0 0)"/>
    <path d="M178.5 1400H1029.5Q1049 1400 1066.5 1407.0Q1084 1414 1097.0 1421.0Q1110 1428 1114.5 1428Q1117 1428 1119.0 1425.0Q1121 1422 1123.5 1408L1186.5 1040Q1188.5 1033.5 1187.5 1029.75Q1186.5 1026 1183.5 1025Q1180.5 1024.5 1177.75 1026.5Q1175 1028.5 1172.5 1033Q1113 1183 1063.0 1258.0Q1013 1333 966.25 1358.0Q919.5 1383 871.5 1383H730.5V53Q730.5 41 739.75 35.0Q749 29 767.5 26L854.5 13Q865.5 11.5 865.5 6Q865.5 0 856.5 0H361.5Q357 0 354.75 2.0Q352.5 4 352.5 6Q352.5 11.5 363.5 13L450.5 26Q469.5 29 478.5 35.0Q487.5 41 487.5 53V1383H346.5Q298.5 1383 252.25 1355.0Q206 1327 155.75 1251.5Q105.5 1176 45.5 1033Q43.5 1028.5 40.5 1026.5Q37.5 1024.5 34.5 1025Q31.5 1026 31.0 1029.75Q30.5 1033.5 31.5 1040L94.5 1408Q97 1422 99.25 1425.0Q101.5 1428 103.5 1428Q107.5 1428 118.0 1421.0Q128.5 1414 144.25 1407.0Q160 1400 178.5 1400Z" transform="translate(1399 0)"/>
    <path d="M439 6Q439 4 437.0 2.0Q435 0 431 0H47Q43 0 41.0 2.0Q39 4 39 6Q39 9.5 49 13L119 33Q158.5 45.5 184.25 71.75Q210 98 210 147.5V1185Q210 1199.5 208.5 1206.5Q207 1213.5 196 1229L104 1377Q100.5 1384 96.75 1389.25Q93 1394.5 93 1397Q93 1399 94.75 1399.5Q96.5 1400 101 1400H365Q371.5 1400 375.75 1394.5Q380 1389 388 1376L1131 178L1118 153V1252.5Q1118 1302.5 1091.75 1329.25Q1065.5 1356 1025 1367L917 1387Q907 1390.5 907 1394Q907 1396.5 909.0 1398.25Q911 1400 915 1400H1299Q1303 1400 1305.0 1398.25Q1307 1396.5 1307 1394Q1307 1390.5 1297 1387L1227 1367Q1188 1356 1162.0 1329.25Q1136 1302.5 1136 1252.5V187Q1136 175.5 1139.75 166.25Q1143.5 157 1148 149L1218 39Q1227.5 23.5 1231.25 16.0Q1235 8.5 1235 5Q1235 3 1232.75 1.5Q1230.5 0 1224 0H975Q960 0 960 14Q960 19.5 957.75 27.0Q955.5 34.5 951 41L192 1248H228V147Q228 98 254.25 71.25Q280.5 44.5 319 33L429 13Q439 9.5 439 6Z" transform="translate(2717 0)"/>
  </g>
</svg>
