<?xml version="1.0" encoding="UTF-8"?>
<svg xmlns="http://www.w3.org/2000/svg" viewBox="0 0 340.64 126" role="img" aria-label="RTN">
  <title>RTN</title>
  <g fill="#1B1A17">
    <path d="M104.08 46.879999999999995Q104.08 55.0 100.53999999999999 61.46Q97.0 67.92 90.58 72.12Q84.16 76.32 75.32000000000001 77.84Q73.8 78.08 72.18 78.28Q70.56 78.47999999999999 68.9 78.56Q67.24000000000001 78.64 65.48 78.64Q59.480000000000004 78.64 54.760000000000005 77.88Q50.04 77.12 46.36 75.58Q42.68 74.03999999999999 39.760000000000005 71.68L40.480000000000004 70.56Q43.24 72.8 46.480000000000004 74.12Q49.72 75.44 53.28 76.0Q56.84 76.56 60.52 76.56Q71.4 76.56 77.94 69.32Q84.48 62.08 84.48 47.519999999999996Q84.48 36.480000000000004 80.24000000000001 27.880000000000003Q76.0 19.28 68.62 14.36Q61.24 9.439999999999998 51.800000000000004 9.439999999999998H43.84V114.88Q43.84 116.32 44.540000000000006 116.97999999999999Q45.24 117.64 46.800000000000004 117.92L53.76 118.96Q54.24 119.0 54.44 119.12Q54.64 119.24 54.64 119.52Q54.64 120.0 53.92 120.0H14.32Q13.96 120.0 13.780000000000001 119.84Q13.600000000000001 119.68 13.600000000000001 119.52Q13.600000000000001 119.08 14.48 118.96L21.439999999999998 117.92Q23.0 117.64 23.7 116.97999999999999Q24.4 116.32 24.4 114.88V12.239999999999995Q24.4 11.280000000000001 23.68 10.780000000000001Q22.96 10.280000000000001 21.439999999999998 10.079999999999998L14.48 9.039999999999992Q13.600000000000001 8.920000000000002 13.600000000000001 8.480000000000004Q13.600000000000001 8.280000000000001 13.780000000000001 8.14Q13.96 8.0 14.32 8.0H51.72Q68.24000000000001 8.0 79.94 12.82Q91.64 17.64 97.86 26.380000000000003Q104.08 35.120000000000005 104.08 46.879999999999995ZM62.04 77.36 80.16 75.28 103.48 113.6Q105.32000000000001 116.52 107.4 117.47999999999999Q109.48 118.44 112.0 118.96Q112.48 119.08 112.68 119.16Q112.88 119.24 112.88 119.52Q112.88 119.68 112.69999999999999 119.84Q112.52 120.0 112.16 120.0H77.8Q77.08 120.0 77.08 119.52Q77.08 119.24 77.3 119.18Q77.52 119.12 77.96000000000001 118.96L81.72 118.32Q83.64 117.8 84.02000000000001 116.58Q84.4 115.36 83.0 112.96Z M134.2 8.0H202.28Q203.84 8.0 205.24 7.439999999999998Q206.64 6.8799999999999955 207.68 6.319999999999993Q208.72 5.759999999999991 209.07999999999998 5.759999999999991Q209.28 5.759999999999991 209.44 5.999999999999993Q209.60000000000002 6.239999999999995 209.8 7.359999999999999L214.84 36.8Q215.0 37.31999999999999 214.92000000000002 37.62Q214.84 37.92 214.60000000000002 38.0Q214.36 38.03999999999999 214.14000000000001 37.879999999999995Q213.92000000000002 37.72 213.72 37.36Q208.96 25.36 204.96 19.36Q200.96 13.36 197.22000000000003 11.36Q193.48000000000002 9.36 189.64 9.36H178.36V115.76Q178.36 116.72 179.10000000000002 117.2Q179.84 117.68 181.32 117.92L188.28 118.96Q189.16 119.08 189.16 119.52Q189.16 120.0 188.44 120.0H148.84Q148.48000000000002 120.0 148.3 119.84Q148.12 119.68 148.12 119.52Q148.12 119.08 149.0 118.96L155.96 117.92Q157.48000000000002 117.68 158.20000000000002 117.2Q158.92000000000002 116.72 158.92000000000002 115.76V9.36H147.64Q143.8 9.36 140.10000000000002 11.600000000000001Q136.4 13.840000000000003 132.38 19.880000000000003Q128.36 25.92 123.56 37.36Q123.4 37.72 123.16 37.879999999999995Q122.92 38.03999999999999 122.68 38.0Q122.44 37.92 122.4 37.62Q122.36 37.31999999999999 122.44 36.8L127.48 7.359999999999999Q127.68 6.239999999999995 127.86 5.999999999999993Q128.04 5.759999999999991 128.2 5.759999999999991Q128.52 5.759999999999991 129.36 6.319999999999993Q130.2 6.8799999999999955 131.45999999999998 7.439999999999998Q132.72 8.0 134.2 8.0Z M260.48 119.52Q260.48 119.68 260.32000000000005 119.84Q260.16 120.0 259.84000000000003 120.0H229.12Q228.8 120.0 228.64000000000001 119.84Q228.48000000000002 119.68 228.48000000000002 119.52Q228.48000000000002 119.24 229.28 118.96L234.88000000000002 117.36Q238.04000000000002 116.36 240.10000000000002 114.25999999999999Q242.16000000000003 112.16 242.16000000000003 108.2V25.200000000000003Q242.16000000000003 24.039999999999992 242.04000000000002 23.479999999999997Q241.92000000000002 22.92 241.04000000000002 21.679999999999993L233.68 9.840000000000003Q233.4 9.280000000000001 233.10000000000002 8.86Q232.8 8.439999999999998 232.8 8.239999999999995Q232.8 8.079999999999998 232.94 8.04Q233.08 8.0 233.44000000000003 8.0H254.56Q255.08 8.0 255.42000000000002 8.439999999999998Q255.76000000000002 8.879999999999995 256.40000000000003 9.920000000000002L315.84000000000003 105.76L314.8 107.76V19.799999999999997Q314.8 15.799999999999997 312.70000000000005 13.659999999999997Q310.6 11.519999999999996 307.36 10.64L298.72 9.039999999999992Q297.92 8.759999999999991 297.92 8.480000000000004Q297.92 8.280000000000001 298.08000000000004 8.14Q298.24 8.0 298.56 8.0H329.28000000000003Q329.6 8.0 329.76 8.14Q329.92 8.280000000000001 329.92 8.480000000000004Q329.92 8.759999999999991 329.12 9.039999999999992L323.52 10.64Q320.40000000000003 11.519999999999996 318.32000000000005 13.659999999999997Q316.24 15.799999999999997 316.24 19.799999999999997V105.03999999999999Q316.24 105.96 316.54 106.69999999999999Q316.84000000000003 107.44 317.20000000000005 108.08L322.8 116.88Q323.56 118.12 323.86 118.72Q324.16 119.32 324.16 119.6Q324.16 119.76 323.98 119.88Q323.8 120.0 323.28000000000003 120.0H303.36Q302.16 120.0 302.16 118.88Q302.16 118.44 301.98 117.84Q301.8 117.24 301.44 116.72L240.72000000000003 20.159999999999997H243.60000000000002V108.24Q243.60000000000002 112.16 245.70000000000002 114.3Q247.8 116.44 250.88000000000002 117.36L259.68 118.96Q260.48 119.24 260.48 119.52Z"/>
  </g>
</svg>
<?xml version="1.0" encoding="UTF-8"?>
<svg xmlns="http://www.w3.org/2000/svg" viewBox="0 0 340.64 163.18" role="img" aria-label="RTN — Run The Numbers">
  <title>RTN — Run The Numbers</title>
  <g fill="#1B1A17">
    <path d="M104.08 46.879999999999995Q104.08 55.0 100.53999999999999 61.46Q97.0 67.92 90.58 72.12Q84.16 76.32 75.32000000000001 77.84Q73.8 78.08 72.18 78.28Q70.56 78.47999999999999 68.9 78.56Q67.24000000000001 78.64 65.48 78.64Q59.480000000000004 78.64 54.760000000000005 77.88Q50.04 77.12 46.36 75.58Q42.68 74.03999999999999 39.760000000000005 71.68L40.480000000000004 70.56Q43.24 72.8 46.480000000000004 74.12Q49.72 75.44 53.28 76.0Q56.84 76.56 60.52 76.56Q71.4 76.56 77.94 69.32Q84.48 62.08 84.48 47.519999999999996Q84.48 36.480000000000004 80.24000000000001 27.880000000000003Q76.0 19.28 68.62 14.36Q61.24 9.439999999999998 51.800000000000004 9.439999999999998H43.84V114.88Q43.84 116.32 44.540000000000006 116.97999999999999Q45.24 117.64 46.800000000000004 117.92L53.76 118.96Q54.24 119.0 54.44 119.12Q54.64 119.24 54.64 119.52Q54.64 120.0 53.92 120.0H14.32Q13.96 120.0 13.780000000000001 119.84Q13.600000000000001 119.68 13.600000000000001 119.52Q13.600000000000001 119.08 14.48 118.96L21.439999999999998 117.92Q23.0 117.64 23.7 116.97999999999999Q24.4 116.32 24.4 114.88V12.239999999999995Q24.4 11.280000000000001 23.68 10.780000000000001Q22.96 10.280000000000001 21.439999999999998 10.079999999999998L14.48 9.039999999999992Q13.600000000000001 8.920000000000002 13.600000000000001 8.480000000000004Q13.600000000000001 8.280000000000001 13.780000000000001 8.14Q13.96 8.0 14.32 8.0H51.72Q68.24000000000001 8.0 79.94 12.82Q91.64 17.64 97.86 26.380000000000003Q104.08 35.120000000000005 104.08 46.879999999999995ZM62.04 77.36 80.16 75.28 103.48 113.6Q105.32000000000001 116.52 107.4 117.47999999999999Q109.48 118.44 112.0 118.96Q112.48 119.08 112.68 119.16Q112.88 119.24 112.88 119.52Q112.88 119.68 112.69999999999999 119.84Q112.52 120.0 112.16 120.0H77.8Q77.08 120.0 77.08 119.52Q77.08 119.24 77.3 119.18Q77.52 119.12 77.96000000000001 118.96L81.72 118.32Q83.64 117.8 84.02000000000001 116.58Q84.4 115.36 83.0 112.96Z M134.2 8.0H202.28Q203.84 8.0 205.24 7.439999999999998Q206.64 6.8799999999999955 207.68 6.319999999999993Q208.72 5.759999999999991 209.07999999999998 5.759999999999991Q209.28 5.759999999999991 209.44 5.999999999999993Q209.60000000000002 6.239999999999995 209.8 7.359999999999999L214.84 36.8Q215.0 37.31999999999999 214.92000000000002 37.62Q214.84 37.92 214.60000000000002 38.0Q214.36 38.03999999999999 214.14000000000001 37.879999999999995Q213.92000000000002 37.72 213.72 37.36Q208.96 25.36 204.96 19.36Q200.96 13.36 197.22000000000003 11.36Q193.48000000000002 9.36 189.64 9.36H178.36V115.76Q178.36 116.72 179.10000000000002 117.2Q179.84 117.68 181.32 117.92L188.28 118.96Q189.16 119.08 189.16 119.52Q189.16 120.0 188.44 120.0H148.84Q148.48000000000002 120.0 148.3 119.84Q148.12 119.68 148.12 119.52Q148.12 119.08 149.0 118.96L155.96 117.92Q157.48000000000002 117.68 158.20000000000002 117.2Q158.92000000000002 116.72 158.92000000000002 115.76V9.36H147.64Q143.8 9.36 140.10000000000002 11.600000000000001Q136.4 13.840000000000003 132.38 19.880000000000003Q128.36 25.92 123.56 37.36Q123.4 37.72 123.16 37.879999999999995Q122.92 38.03999999999999 122.68 38.0Q122.44 37.92 122.4 37.62Q122.36 37.31999999999999 122.44 36.8L127.48 7.359999999999999Q127.68 6.239999999999995 127.86 5.999999999999993Q128.04 5.759999999999991 128.2 5.759999999999991Q128.52 5.759999999999991 129.36 6.319999999999993Q130.2 6.8799999999999955 131.45999999999998 7.439999999999998Q132.72 8.0 134.2 8.0Z M260.48 119.52Q260.48 119.68 260.32000000000005 119.84Q260.16 120.0 259.84000000000003 120.0H229.12Q228.8 120.0 228.64000000000001 119.84Q228.48000000000002 119.68 228.48000000000002 119.52Q228.48000000000002 119.24 229.28 118.96L234.88000000000002 117.36Q238.04000000000002 116.36 240.10000000000002 114.25999999999999Q242.16000000000003 112.16 242.16000000000003 108.2V25.200000000000003Q242.16000000000003 24.039999999999992 242.04000000000002 23.479999999999997Q241.92000000000002 22.92 241.04000000000002 21.679999999999993L233.68 9.840000000000003Q233.4 9.280000000000001 233.10000000000002 8.86Q232.8 8.439999999999998 232.8 8.239999999999995Q232.8 8.079999999999998 232.94 8.04Q233.08 8.0 233.44000000000003 8.0H254.56Q255.08 8.0 255.42000000000002 8.439999999999998Q255.76000000000002 8.879999999999995 256.40000000000003 9.920000000000002L315.84000000000003 105.76L314.8 107.76V19.799999999999997Q314.8 15.799999999999997 312.70000000000005 13.659999999999997Q310.6 11.519999999999996 307.36 10.64L298.72 9.039999999999992Q297.92 8.759999999999991 297.92 8.480000000000004Q297.92 8.280000000000001 298.08000000000004 8.14Q298.24 8.0 298.56 8.0H329.28000000000003Q329.6 8.0 329.76 8.14Q329.92 8.280000000000001 329.92 8.480000000000004Q329.92 8.759999999999991 329.12 9.039999999999992L323.52 10.64Q320.40000000000003 11.519999999999996 318.32000000000005 13.659999999999997Q316.24 15.799999999999997 316.24 19.799999999999997V105.03999999999999Q316.24 105.96 316.54 106.69999999999999Q316.84000000000003 107.44 317.20000000000005 108.08L322.8 116.88Q323.56 118.12 323.86 118.72Q324.16 119.32 324.16 119.6Q324.16 119.76 323.98 119.88Q323.8 120.0 323.28000000000003 120.0H303.36Q302.16 120.0 302.16 118.88Q302.16 118.44 301.98 117.84Q301.8 117.24 301.44 116.72L240.72000000000003 20.159999999999997H243.60000000000002V108.24Q243.60000000000002 112.16 245.70000000000002 114.3Q247.8 116.44 250.88000000000002 117.36L259.68 118.96Q260.48 119.24 260.48 119.52Z"/>
    <path d="M20.253993408203144 155.18V142.4H25.34800878906252Q26.71600988769533 142.4 27.70781109619142 142.868Q28.699612304687516 143.336 29.241412963867205 144.20359967041017Q29.78321362304689 145.07119934082033 29.78321362304689 146.2519989013672Q29.78321362304689 147.12319934082032 29.390814392089858 147.8017995605469Q28.99841516113283 148.48039978027344 28.364814941406266 148.88720043945312Q27.731214721679706 149.29400109863283 27.00041186523439 149.35520263671876L26.90681274414064 149.1896024169922Q28.112814941406267 149.1896024169922 28.786014831542985 149.73500274658204Q29.459214721679704 150.2804030761719 29.56001428222658 151.45040197753906L29.90561340332033 155.18H27.93278857421877L27.637590332031266 151.70240747070312Q27.572790771484392 150.92840856933594 27.108392639160172 150.55940911865235Q26.643994506835952 150.19040966796877 25.578397583007828 150.19040966796877H22.198017578125018V155.18ZM22.198017578125018 148.4155936279297H25.376798461914078Q26.48919494628908 148.4155936279297 27.128192199707048 147.86659637451174Q27.767189453125017 147.31759912109376 27.767189453125017 146.30600439453127Q27.767189453125017 145.27640966796875 27.113792419433608 144.7256128540039Q26.460395385742203 144.17481604003908 25.218400878906266 144.17481604003908H22.198017578125018Z M46.1956024169922 155.46800000000002Q44.67597413853238 155.46800000000002 43.554784981863854 154.88479956054687Q42.433595825195326 154.30159912109374 41.82879461669923 153.21988846740723Q41.223993408203135 152.13817781372072 41.223993408203135 150.66559692382813V142.4H43.16801757812501V150.66559692382813Q43.16801757812501 152.1121107299805 43.956413513183605 152.90264734497072Q44.7448094482422 153.69318395996095 46.1956024169922 153.69318395996095Q47.635595825195324 153.69318395996095 48.42399176025392 152.90264734497072Q49.212387695312515 152.1121107299805 49.212387695312515 150.66559692382813V142.4H51.15641186523439V150.66559692382813Q51.15641186523439 152.13817781372072 50.55161065673829 153.21988846740723Q49.9468094482422 154.30159912109374 48.83258953796992 154.88479956054687Q47.71836962769764 155.46800000000002 46.1956024169922 155.46800000000002Z M62.985993408203136 155.18V142.4H65.45561010742189L71.36318505859376 152.82555078125V142.4H73.30720922851563V155.18H70.75119384765625L64.930017578125 144.9992509765625V155.18Z M101.358396484375 155.18V144.17481604003908H97.43079956054689V142.4H107.23361779785157V144.17481604003908H103.30602087402345V155.18Z M117.99399340820314 155.18V142.4H119.93801757812501V148.55959692382814L119.00560900878908 147.8647918701172H126.77079406738282L125.83838549804689 148.55959692382814V142.4H127.78240966796876V155.18H125.83838549804689V148.94840307617187L126.77079406738282 149.63960791015626H119.00560900878908L119.93801757812501 148.94840307617187V155.18Z M139.88199340820313 155.18V142.4H148.19801098632811V144.17481604003908H141.826017578125V147.9007918701172H147.98201098632813V149.64320812988282H141.826017578125V153.40518395996094H148.34201098632812V155.18Z M173.2179934082031 155.18V142.4H175.68761010742188L181.59518505859373 152.82555078125V142.4H183.5392092285156V155.18H180.98319384765622L175.162017578125 144.9992509765625V155.18Z M200.32960241699217 155.46800000000002Q198.80997413853234 155.46800000000002 197.68878498186382 154.88479956054687Q196.5675958251953 154.30159912109374 195.9627946166992 153.21988846740723Q195.3579934082031 152.13817781372072 195.3579934082031 150.66559692382813V142.4H197.30201757812497V150.66559692382813Q197.30201757812497 152.1121107299805 198.0904135131836 152.90264734497072Q198.87880944824218 153.69318395996095 200.32960241699217 153.69318395996095Q201.7695958251953 153.69318395996095 202.55799176025388 152.90264734497072Q203.34638769531247 152.1121107299805 203.34638769531247 150.66559692382813V142.4H205.29041186523435V150.66559692382813Q205.29041186523435 152.13817781372072 204.68561065673828 153.21988846740723Q204.08080944824218 154.30159912109374 202.9665895379699 154.88479956054687Q201.8523696276976 155.46800000000002 200.32960241699217 155.46800000000002Z M217.1199934082031 155.18V142.4H219.77682373046872L223.5856068115234 152.8939637451172L227.37999011230465 142.4H230.03682043457027V155.18H228.0927962646484V145.82003295898437L224.65480944824216 155.1691993408203H222.49840417480465L219.06401757812498 145.82003295898437V155.18Z M242.1399934082031 155.18V142.4H246.72640527343748Q249.0304074707031 142.4 250.20580999755856 143.22980010986328Q251.38121252441405 144.05960021972658 251.38121252441405 145.8488006591797Q251.38121252441405 146.666 251.033813293457 147.28159912109373Q250.68641406249998 147.8971982421875 250.03481494140624 148.24459802246093Q249.38321582031247 148.59199780273437 248.47601647949216 148.61359912109376L248.46161669921872 148.53440087890627Q250.0924162597656 148.56680285644532 251.00681439208984 149.4218017578125Q251.92121252441405 150.27680065917968 251.92121252441405 151.66639978027345Q251.92121252441405 153.42320043945313 250.74761010742185 154.30160021972657Q249.57400769042968 155.18 247.41040307617186 155.18ZM244.08401757812499 153.4303854980469H247.36360021972655Q248.56959362792966 153.4303854980469 249.24459143066406 152.9353882446289Q249.91958923339843 152.44039099121093 249.91958923339843 151.49719494628906Q249.91958923339843 150.5539989013672 249.24639154052733 150.03560186767578Q248.57319384765623 149.51720483398438 247.36360021972655 149.51720483398438H244.08401757812499ZM244.08401757812499 147.84679516601562H246.697603515625Q247.97199560546875 147.84679516601562 248.6757924194336 147.36259802246093Q249.37958923339843 146.87840087890626 249.37958923339843 145.99280505371095Q249.37958923339843 145.0568094482422 248.69919219970703 144.60321197509768Q248.01879516601562 144.14961450195312 246.697603515625 144.14961450195312H244.08401757812499Z M263.5239934082031 155.18V142.4H271.84001098632814V144.17481604003908H265.468017578125V147.9007918701172H271.62401098632813V149.64320812988282H265.468017578125V153.40518395996094H271.98401098632814V155.18Z M283.4859934082031 155.18V142.4H288.5800087890625Q289.9480098876953 142.4 290.9398110961914 142.868Q291.93161230468746 143.336 292.4734129638672 144.20359967041017Q293.01521362304686 145.07119934082033 293.01521362304686 146.2519989013672Q293.01521362304686 147.12319934082032 292.6228143920898 147.8017995605469Q292.2304151611328 148.48039978027344 291.59681494140625 148.88720043945312Q290.96321472167966 149.29400109863283 290.2324118652344 149.35520263671876L290.13881274414064 149.1896024169922Q291.34481494140624 149.1896024169922 292.0180148315429 149.73500274658204Q292.69121472167967 150.2804030761719 292.79201428222655 151.45040197753906L293.1376134033203 155.18H291.16478857421873L290.86959033203124 151.70240747070312Q290.80479077148436 150.92840856933594 290.34039263916014 150.55940911865235Q289.8759945068359 150.19040966796877 288.8103975830078 150.19040966796877H285.430017578125V155.18ZM285.430017578125 148.4155936279297H288.60879846191403Q289.7211949462891 148.4155936279297 290.36019219970706 147.86659637451174Q290.999189453125 147.31759912109376 290.999189453125 146.30600439453127Q290.999189453125 145.27640966796875 290.34579241943356 144.7256128540039Q289.6923953857422 144.17481604003908 288.45040087890624 144.17481604003908H285.430017578125Z M309.3376068115234 155.46800000000002Q307.80400329589844 155.46800000000002 306.6772015380859 154.91000000000003Q305.55039978027344 154.352 304.90239923095703 153.36199945068358Q304.2543986816406 152.3719989013672 304.1499989013672 151.0543975830078L306.14802197265624 150.93559692382814Q306.26682153320314 151.82479296875002 306.6664195556641 152.445790222168Q307.066017578125 153.06678747558595 307.74101428222656 153.38538604736328Q308.4160109863281 153.70398461914064 309.3736068115234 153.70398461914064Q310.20160241699216 153.70398461914064 310.7811993408203 153.4933860473633Q311.36079626464846 153.28278747558593 311.66679461669924 152.87238989257813Q311.97279296875 152.46199230957032 311.97279296875 151.86799560546876Q311.97279296875 151.32439868164064 311.71539428710935 150.90500109863282Q311.45799560546874 150.485603515625 310.73259912109376 150.13460571289062Q310.0072026367188 149.78360791015626 308.58880944824216 149.4416101074219Q307.0588061523437 149.06721032714844 306.1444036254883 148.6118099975586Q305.2300010986328 148.15640966796875 304.8213997802734 147.48680834960936Q304.41279846191406 146.81720703125 304.41279846191406 145.82000439453125Q304.41279846191406 144.71840307617188 304.94559967041016 143.88320208740237Q305.47840087890626 143.04800109863282 306.47200329589845 142.58000054931642Q307.46560571289064 142.112 308.84080944824217 142.112Q310.30601318359373 142.112 311.34281494140623 142.65200054931643Q312.37961669921873 143.19200109863283 312.9826172485351 144.12800219726563Q313.58561779785157 145.06400329589843 313.726017578125 146.2664052734375L311.7351949462891 146.38160571289063Q311.6415958251953 145.64360791015625 311.28159747314453 145.07841021728515Q310.9215991210937 144.51321252441406 310.30420208740236 144.1946139526367Q309.68680505371094 143.87601538085937 308.80480944824217 143.87601538085937Q307.7032147216797 143.87601538085937 307.05881823730465 144.3908121948242Q306.4144217529297 144.90560900878907 306.4144217529297 145.74080395507812Q306.4144217529297 146.29520153808593 306.6790208740234 146.65880010986328Q306.94361999511716 147.02239868164062 307.61501702880855 147.29599725341797Q308.2864140625 147.5695958251953 309.5320076904297 147.87199340820314Q311.1916112060547 148.2535925292969 312.16721307373047 148.80439263916017Q313.14281494140624 149.35519274902344 313.55861560058594 150.08599340820314Q313.97441625976563 150.81679406738283 313.97441625976563 151.75279516601563Q313.97441625976563 152.89399670410157 313.3894157104492 153.73099780273438Q312.8044151611328 154.5679989013672 311.76221307373044 155.0179994506836Q310.72001098632813 155.46800000000002 309.3376068115234 155.46800000000002Z"/>
    <path d="M319.3436210876465 145.68032306518555Q318.87706079101565 145.68032306518555 318.4712504943848 145.5045529663086Q318.0654401977539 145.32878286743164 317.75845000000004 145.02179266967772Q317.4514598022461 144.71480247192383 317.2789296539307 144.3081821258545Q317.10639950561523 143.90156177978517 317.10639950561523 143.4350014831543Q317.10639950561523 142.96844118652345 317.2789296539307 142.5634409393311Q317.4514598022461 142.1584406921387 317.75845000000004 141.85145049438478Q318.0654401977539 141.54446029663086 318.4712504943848 141.37193014831544Q318.87706079101565 141.19940000000003 319.3436210876465 141.19940000000003Q319.81018138427737 141.19940000000003 320.21275173034667 141.37193014831544Q320.615322076416 141.54446029663086 320.92231227416994 141.85145049438478Q321.2293024719238 142.1584406921387 321.40183262023925 142.5634409393311Q321.5743627685547 142.96844118652345 321.5743627685547 143.4350014831543Q321.5743627685547 143.90156177978517 321.40183262023925 144.3081821258545Q321.2293024719238 144.71480247192383 320.92231227416994 145.02179266967772Q320.615322076416 145.32878286743164 320.21275173034667 145.5045529663086Q319.81018138427737 145.68032306518555 319.3436210876465 145.68032306518555ZM319.3436210876465 145.19756177978516Q319.8555406921387 145.19756177978516 320.24515074157716 144.9578017303467Q320.63476079101565 144.71804168090821 320.85994093933107 144.31547158203125Q321.0851210876465 143.91290148315431 321.0851210876465 143.4350014831543Q321.0851210876465 142.9571014831543 320.85994093933107 142.55939143371583Q320.63476079101565 142.16168138427736 320.24515074157716 141.9251612854004Q319.8555406921387 141.68864118652345 319.3436210876465 141.68864118652345Q318.83494168090823 141.68864118652345 318.44128163146974 141.9251612854004Q318.04762158203124 142.16168138427736 317.82163138427734 142.55939143371583Q317.59564118652344 142.9571014831543 317.59564118652344 143.4350014831543Q317.59564118652344 143.91290148315431 317.82163138427734 144.31547158203125Q318.04762158203124 144.71804168090821 318.44128163146974 144.9578017303467Q318.83494168090823 145.19756177978516 319.3436210876465 145.19756177978516ZM318.43803970336916 144.6467612854004V142.2297210876465H319.2966431640625Q319.7632029663086 142.2297210876465 320.030503213501 142.42979143371582Q320.29780346069333 142.62986177978516 320.29780346069333 142.97978187866212Q320.29780346069333 143.22602158203125 320.1657738067627 143.40665173034668Q320.033744152832 143.5872818786621 319.7891245483398 143.65694217529298L320.38204266967773 144.6467612854004H319.81017891235354L319.28854118652345 143.7266029663086H318.9532034606934V144.6467612854004ZM318.94996326293943 143.31512059326172H319.32094069213866Q319.5396397033691 143.31512059326172 319.6635693572998 143.2252112854004Q319.78749901123047 143.1353019775391 319.78749901123047 142.97330247192383Q319.78749901123047 142.81778286743165 319.6635693572998 142.73678336181644Q319.5396397033691 142.6557838562012 319.32094069213866 142.6557838562012H318.94996326293943Z"/>
  </g>
</svg>
