<?xml version="1.0" encoding="UTF-8"?>
<svg xmlns="http://www.w3.org/2000/svg" viewBox="0 0 340.64 126" role="img" aria-label="RTN">
  <title>RTN</title>
  <g fill="#1B1A17">
    <path d="M104.08 46.879999999999995Q104.08 55.0 100.53999999999999 61.46Q97.0 67.92 90.58 72.12Q84.16 76.32 75.32000000000001 77.84Q73.8 78.08 72.18 78.28Q70.56 78.47999999999999 68.9 78.56Q67.24000000000001 78.64 65.48 78.64Q59.480000000000004 78.64 54.760000000000005 77.88Q50.04 77.12 46.36 75.58Q42.68 74.03999999999999 39.760000000000005 71.68L40.480000000000004 70.56Q43.24 72.8 46.480000000000004 74.12Q49.72 75.44 53.28 76.0Q56.84 76.56 60.52 76.56Q71.4 76.56 77.94 69.32Q84.48 62.08 84.48 47.519999999999996Q84.48 36.480000000000004 80.24000000000001 27.880000000000003Q76.0 19.28 68.62 14.36Q61.24 9.439999999999998 51.800000000000004 9.439999999999998H43.84V114.88Q43.84 116.32 44.540000000000006 116.97999999999999Q45.24 117.64 46.800000000000004 117.92L53.76 118.96Q54.24 119.0 54.44 119.12Q54.64 119.24 54.64 119.52Q54.64 120.0 53.92 120.0H14.32Q13.96 120.0 13.780000000000001 119.84Q13.600000000000001 119.68 13.600000000000001 119.52Q13.600000000000001 119.08 14.48 118.96L21.439999999999998 117.92Q23.0 117.64 23.7 116.97999999999999Q24.4 116.32 24.4 114.88V12.239999999999995Q24.4 11.280000000000001 23.68 10.780000000000001Q22.96 10.280000000000001 21.439999999999998 10.079999999999998L14.48 9.039999999999992Q13.600000000000001 8.920000000000002 13.600000000000001 8.480000000000004Q13.600000000000001 8.280000000000001 13.780000000000001 8.14Q13.96 8.0 14.32 8.0H51.72Q68.24000000000001 8.0 79.94 12.82Q91.64 17.64 97.86 26.380000000000003Q104.08 35.120000000000005 104.08 46.879999999999995ZM62.04 77.36 80.16 75.28 103.48 113.6Q105.32000000000001 116.52 107.4 117.47999999999999Q109.48 118.44 112.0 118.96Q112.48 119.08 112.68 119.16Q112.88 119.24 112.88 119.52Q112.88 119.68 112.69999999999999 119.84Q112.52 120.0 112.16 120.0H77.8Q77.08 120.0 77.08 119.52Q77.08 119.24 77.3 119.18Q77.52 119.12 77.96000000000001 118.96L81.72 118.32Q83.64 117.8 84.02000000000001 116.58Q84.4 115.36 83.0 112.96Z M134.2 8.0H202.28Q203.84 8.0 205.24 7.439999999999998Q206.64 6.8799999999999955 207.68 6.319999999999993Q208.72 5.759999999999991 209.07999999999998 5.759999999999991Q209.28 5.759999999999991 209.44 5.999999999999993Q209.60000000000002 6.239999999999995 209.8 7.359999999999999L214.84 36.8Q215.0 37.31999999999999 214.92000000000002 37.62Q214.84 37.92 214.60000000000002 38.0Q214.36 38.03999999999999 214.14000000000001 37.879999999999995Q213.92000000000002 37.72 213.72 37.36Q208.96 25.36 204.96 19.36Q200.96 13.36 197.22000000000003 11.36Q193.48000000000002 9.36 189.64 9.36H178.36V115.76Q178.36 116.72 179.10000000000002 117.2Q179.84 117.68 181.32 117.92L188.28 118.96Q189.16 119.08 189.16 119.52Q189.16 120.0 188.44 120.0H148.84Q148.48000000000002 120.0 148.3 119.84Q148.12 119.68 148.12 119.52Q148.12 119.08 149.0 118.96L155.96 117.92Q157.48000000000002 117.68 158.20000000000002 117.2Q158.92000000000002 116.72 158.92000000000002 115.76V9.36H147.64Q143.8 9.36 140.10000000000002 11.600000000000001Q136.4 13.840000000000003 132.38 19.880000000000003Q128.36 25.92 123.56 37.36Q123.4 37.72 123.16 37.879999999999995Q122.92 38.03999999999999 122.68 38.0Q122.44 37.92 122.4 37.62Q122.36 37.31999999999999 122.44 36.8L127.48 7.359999999999999Q127.68 6.239999999999995 127.86 5.999999999999993Q128.04 5.759999999999991 128.2 5.759999999999991Q128.52 5.759999999999991 129.36 6.319999999999993Q130.2 6.8799999999999955 131.45999999999998 7.439999999999998Q132.72 8.0 134.2 8.0Z M260.48 119.52Q260.48 119.68 260.32000000000005 119.84Q260.16 120.0 259.84000000000003 120.0H229.12Q228.8 120.0 228.64000000000001 119.84Q228.48000000000002 119.68 228.48000000000002 119.52Q228.48000000000002 119.24 229.28 118.96L234.88000000000002 117.36Q238.04000000000002 116.36 240.10000000000002 114.25999999999999Q242.16000000000003 112.16 242.16000000000003 108.2V25.200000000000003Q242.16000000000003 24.039999999999992 242.04000000000002 23.479999999999997Q241.92000000000002 22.92 241.04000000000002 21.679999999999993L233.68 9.840000000000003Q233.4 9.280000000000001 233.10000000000002 8.86Q232.8 8.439999999999998 232.8 8.239999999999995Q232.8 8.079999999999998 232.94 8.04Q233.08 8.0 233.44000000000003 8.0H254.56Q255.08 8.0 255.42000000000002 8.439999999999998Q255.76000000000002 8.879999999999995 256.40000000000003 9.920000000000002L315.84000000000003 105.76L314.8 107.76V19.799999999999997Q314.8 15.799999999999997 312.70000000000005 13.659999999999997Q310.6 11.519999999999996 307.36 10.64L298.72 9.039999999999992Q297.92 8.759999999999991 297.92 8.480000000000004Q297.92 8.280000000000001 298.08000000000004 8.14Q298.24 8.0 298.56 8.0H329.28000000000003Q329.6 8.0 329.76 8.14Q329.92 8.280000000000001 329.92 8.480000000000004Q329.92 8.759999999999991 329.12 9.039999999999992L323.52 10.64Q320.40000000000003 11.519999999999996 318.32000000000005 13.659999999999997Q316.24 15.799999999999997 316.24 19.799999999999997V105.03999999999999Q316.24 105.96 316.54 106.69999999999999Q316.84000000000003 107.44 317.20000000000005 108.08L322.8 116.88Q323.56 118.12 323.86 118.72Q324.16 119.32 324.16 119.6Q324.16 119.76 323.98 119.88Q323.8 120.0 323.28000000000003 120.0H303.36Q302.16 120.0 302.16 118.88Q302.16 118.44 301.98 117.84Q301.8 117.24 301.44 116.72L240.72000000000003 20.159999999999997H243.60000000000002V108.24Q243.60000000000002 112.16 245.70000000000002 114.3Q247.8 116.44 250.88000000000002 117.36L259.68 118.96Q260.48 119.24 260.48 119.52Z"/>
  </g>
</svg>
