<svg width="1251" height="479" viewBox="0 0 1251 479" fill="none" xmlns="http://www.w3.org/2000/svg">
<path d="M383.9 90.6982C389.5 113.653 385.5 136.653 379.9 153.513C374.3 170.372 366.9 185.465 349.9 198.013C307.9 229.013 302.85 224.513 276.5 231.013C268.205 233.059 238.6 233.854 233 234.551C227.633 235.017 260.083 252.082 254.25 252.547C248.65 252.78 242.933 252.896 237.1 252.896C217.267 252.896 200.65 244.448 183.9 239.513C176.9 234.013 187.418 235.013 147 235.013C113.9 235.013 126.033 234.026 117.4 227.513L123.9 210.513L121.9 223.013C129.367 229.061 131.4 229.318 148.9 229.318C158.4 229.318 186.9 229.013 194.4 229.013C203.9 229.013 210.867 228.691 220.9 228.691C247.967 228.691 239.9 229.013 264 212.568C282.9 196.012 294.4 190.512 302.85 150.205C306.5 110.653 308.6 96.567 297.4 70.5125C286.2 44.458 280.067 37.1682 261.4 22.5125C242.733 7.62421 214.533 7.01266 191.9 7.01266H138.4V227.513V434.013C145.9 472.513 178.474 471.786 187.4 471.786C189.703 471.786 190.524 471.786 191.4 471.786H191.9C193.767 472.019 195.05 472.368 195.75 472.833C196.45 473.298 196.4 473.849 196.4 475.013C196.4 476.641 195.517 477.369 192.95 477.369L3.85 476.868C2.68333 476.868 1.75 476.636 1.05 476.171C0.35 475.473 0 474.891 0 474.426C0 472.797 1.63333 471.751 4.9 471.285L16.4 471.013C21.9 470.24 35.4 464.513 38.4 462.513C41.4 460.513 43.4 459.013 46.4 455.513L48.4 453.013L50.4 450.013L52.9 442.513L54.9 428.513V401.513V347.513V239.513V38.5127C51.9 24.0128 46.7716 19.5795 40.9 15.0127C36.4 11.5127 34.9 10.0127 30.4 8.51266L22.4 6.51266L17.9 5.51251L12.9 5.01251H6.4C3.13333 4.54726 1.40007 4.08355 1.40007 2.45515C1.40007 1.75726 1.75007 1.17567 2.45007 0.710388C3.15007 0.245135 4.0834 0.0125087 5.25007 0.0125087H191.1C242.433 0.0125087 270.8 -0.918013 307.9 13.2724C344.4 29.2724 352.9 40.5125 358.9 44.6982C374.9 66.6982 376.9 69.6982 383.9 90.6982ZM165.9 232.013L213.5 229.013L225 228.513L236.5 226.513L254.25 219.353L270.475 207.856L293.05 193.324L233 234.551L257.4 243.013L282.4 257.513L308.4 281.013L327.9 303.513L344.9 327.013L386.4 388.513L410.9 423.513C423.9 446.013 441.967 458.721 446.4 461.513C450.833 464.304 452.4 467.013 461.9 469.013C472.9 471.513 473.9 472.498 484.4 472.498C496.4 472.498 494.4 476.849 494.4 478.013C494.4 478.013 492.4 478.013 487.9 478.013C483.9 478.013 478.829 478.013 471.9 478.013L397.35 477.872C394.783 477.872 393.5 477.058 393.5 475.429C393.5 474.266 394.263 477.513 394.963 477.513C395.896 477.28 392.267 478.21 393.9 477.513H392.4H386.4C382.9 477.013 379.4 477.513 370.9 475.429C351.5 472.318 343.5 466.818 325.4 443.868L311.9 424.427L298 401.496L270.475 356.632L222.9 278.369L198.9 250.013L183.9 239.513L179.9 237.013L175.4 235.154L165.9 232.013Z" fill="black"/>
<path d="M455.331 0.65284H776.4C781.533 0.65284 800.9 0.65284 805.9 0.65284C810.724 0.65284 813.9 0.65284 816.9 0.65284C820.4 0.65284 822.883 0.602936 824.05 0.602936C824.517 0.602936 824.983 0.952924 825.45 1.6529C826.15 2.35291 826.733 4.56958 827.2 8.30292L830.9 123.653C830.9 125.653 830.9 126.653 830.9 127.653C830.667 128.353 830.7 128.936 830 129.403C829.3 129.636 828.483 129.52 827.55 129.053C826.85 128.586 814.6 79.8196 813.9 78.6529C801.4 52.1529 805.1 59.7196 790.4 39.6529C773.9 21.1529 765.9 20.1529 753.4 14.1529C741.267 7.38622 717.133 6.1529 706.4 6.1529H678.1L668.4 5.90309V32.153V62.153V119.153V233.053V346.053V402.653V432.153L669.9 447.153L673.9 454.153L678.1 458.453C680.9 461.153 680.833 461.52 683.4 463.153C685.9 465.153 688.9 467.153 692.8 468.603L720.35 472.453C723.617 472.92 725.25 473.97 725.25 475.603C725.25 477.236 723.967 478.053 721.4 478.053H528.9C527.733 478.053 526.801 477.82 526.101 477.353C525.401 476.653 525.052 476.07 525.052 475.603C525.052 473.97 526.683 472.92 529.95 472.453H539.9C544.9 472.453 544.9 471.653 547.9 471.653C550.9 470.653 552.9 470.567 554.9 469.153L565.4 464.653L574.9 456.053L580.4 443.053L582.331 427.053V406.553V346.053V233.053V6.25285H527.831C516.9 6.25285 510.9 8.65302 496.331 12.9127C483.331 18.6529 463.764 26.3529 448.831 46.6529C434.131 66.7195 424.779 84.6529 419.4 126.653C419.248 127.841 418.9 128.653 417.4 129.153C416.9 129.153 416.1 129.386 415.4 129.153C414.9 128.653 414.903 128.453 414.902 127.653C414.9 126.653 414.9 125.153 414.902 123.153L418.402 6.25285C419.9 2.55285 419.433 3.75286 419.9 3.05285C420.6 2.35288 421.433 1.05285 421.9 1.05285C422.9 0.65284 424.4 0.65284 427.502 0.65284C430.831 0.65284 434.331 0.652859 438.831 0.65284C443.831 0.65284 450.197 0.65284 455.331 0.65284Z" fill="black"/>
<path d="M966.206 475.303C966.206 475.77 965.856 476.353 965.156 477.053C964.689 477.52 963.989 477.753 963.056 477.753H840.806C839.639 477.753 838.822 477.52 838.356 477.053C837.889 476.353 837.656 475.77 837.656 475.303C837.656 474.137 838.939 473.087 841.505 472.153H852.356C865.189 468.187 868.989 467.253 877.856 458.153C886.722 448.82 891.356 426.72 891.356 410.153L892.356 70.6534C892.356 67.6201 892.589 65.5534 892.356 64.1534C892.122 62.5201 892.356 60.1534 892.356 56.6534V35.2033L891.9 29.6532L890.4 25.1532L885.9 17.6532L878.9 12.1532L870.856 8.20332L865.856 6.70331L863.356 6.20331L860.856 5.90322H854.356C852.356 5.90322 851.9 5.90322 849.956 5.90322C847.856 5.70331 848.4 4.15302 848.4 2.15302C848.4 1.68633 848.439 1.23656 848.906 1.00324C849.372 0.769899 850.189 0.653227 851.356 0.653227L962.856 1.35335C964.256 1.35335 967.467 2.2198 968.4 3.15315C969.567 4.08647 971.689 5.86999 972.856 8.20332L1099.9 185.653L1193.4 318.153L1196.78 419.253L1190.83 432.553L1192.9 251.153V68.9034C1192.9 52.3367 1191.77 33.4865 1182.9 24.1531C1174.03 14.5865 1165.47 10.6531 1152.4 7.15314L1133.9 6.25337C1131.33 5.32005 1130.05 4.27005 1130.05 3.10339C1130.05 2.40338 1130.28 1.82004 1130.75 1.35335C1131.22 0.886686 1132.03 0.653356 1133.2 0.653356H1247.1C1248.27 0.653356 1249.08 0.886686 1249.55 1.35335C1250.02 1.82004 1250.25 2.40338 1250.25 3.10339C1250.25 4.27005 1248.97 5.32005 1246.4 6.25337L1231.4 8.15314C1218.57 11.6531 1217.77 14.5865 1208.9 24.1531C1200.03 33.4865 1198.53 52.3367 1198.53 68.9034V415.753C1198.53 418.553 1198.4 425.153 1198.53 427.203C1198.53 429.506 1198.53 432.659 1198.53 434.703L1198.13 457.203C1198.13 462.203 1197.86 465.653 1197.86 467.653C1197.86 469.653 1197.86 469.22 1197.86 470.153C1197.86 470.853 1197.99 472.021 1197.36 472.653C1196.89 473.12 1189.36 462.153 1188.23 460.703L1169.73 432.553C1166.36 427.653 1165.36 425.653 1162.86 422.153C1161.78 420.653 1156.36 413.153 1154.86 411.153C1153.19 408.932 1145.9 397.153 1144.4 395.653L895.356 42.1533L897.856 40.6534V225.653V318.153V364.653V388.153V411.153C897.856 427.487 903.489 443.82 912.356 453.153C921.456 462.487 925.756 465.92 938.356 469.653L952.356 472.153H962.356C964.922 473.087 966.206 474.137 966.206 475.303Z" fill="black"/>
</svg>
