<?xml version="1.0" encoding="UTF-8"?>
<!-- RTN V2 Ledger icon — 3.3 Audit Frameworks -->
<!-- Generated with rough.js · roughness 1.1 · bowing 1.6 · stroke 2.9 · seed 303 -->
<svg xmlns="http://www.w3.org/2000/svg" viewBox="0 0 64 64" width="64" height="64" fill="none">
<g><path d="M9.725907124020159 10.062783577106893 C14.261466762796045 10.757299111033976, 18.581609874777495 10.008331493283809, 35.49490098450333 8.765422960184514 M34.79953556861729 10.381432724930345 C34.51864445848018 18.22226069122553, 36.768704665131864 23.888699962757528, 36.322500612400475 36.227061183191836 M37.783524555899206 38.1138378104195 C29.181777660548686 36.440180315966906, 18.58752073254436 34.31959271072894, 11.469566489197314 36.644000043533744 M10.431961300037802 35.6039141247049 C8.821278809978066 26.223882460966706, 9.107354527188836 19.763071721605954, 8.424105687998235 11.605665362812578" stroke="#2B4A7C" stroke-width="2.9" fill="none"></path></g><g><path d="M22.72590712402016 10.062783577106893 C22.268424715928735 15.72039708942175, 21.353151591949164 20.206845707632603, 22.494900984503328 34.765422960184516" stroke="#2B4A7C" stroke-width="2.9" fill="none"></path></g><g><path d="M9.725907124020159 23.06278357710689 C14.261466762796045 23.757299111033976, 18.581609874777495 23.00833149328381, 35.49490098450333 21.765422960184516" stroke="#2B4A7C" stroke-width="2.9" fill="none"></path></g><g><path d="M37.218670169084135 26.548954403820403 C39.37713846536262 26.29730905880469, 42.77220389163106 27.06386631091711, 44.558782123077584 28.82602315728218 C46.34536035452411 30.58818000364725, 47.395006151160985 34.724038192703055, 47.9381395577633 37.12189548201082 C48.481272964365616 39.519752771318586, 48.87477887274506 41.43902754169731, 47.817582562691456 43.213166893128786 C46.76038625263785 44.987306244560266, 43.748739751866694 46.84055552193841, 41.59496169744166 47.76673159059969 C39.44118364301663 48.69290765926097, 37.02005052462376 49.45352800162723, 34.89491423614125 48.77022330509644 C32.76977794765873 48.08691860856565, 30.010304068271186 45.81282792640913, 28.844143966546564 43.666903411414964 C27.677983864821943 41.5209788964208, 27.447483983197735 38.465546384848906, 27.897953625793512 35.89467621513144 C28.34842326838929 33.323806045413974, 29.48354439162898 29.584546640691492, 31.546961822121233 28.241682393110146 C33.61037925261349 26.8988181455288, 38.691038111397134 27.931434664041667, 40.27845820874705 27.837490729643363 C41.86587830609696 27.74354679524506, 41.3803994738253 27.773477398667662, 41.07148240622073 27.67801878672033" stroke="#2B4A7C" stroke-width="2.9" fill="none"></path></g><g><path d="M45.80618706871973 46.04439469311943 C47.418156194166876 48.461292670817826, 48.784581990778904 49.94531421863332, 55.642841060971655 55.127022203249254" stroke="#2B4A7C" stroke-width="2.9" fill="none"></path></g>
</svg>
