<?xml version="1.0" encoding="UTF-8"?>
<!-- RTN V2 Ledger icon — 3.9 Automation -->
<!-- Generated with rough.js · roughness 1.1 · bowing 1.6 · stroke 2.9 · seed 309 -->
<svg xmlns="http://www.w3.org/2000/svg" viewBox="0 0 64 64" width="64" height="64" fill="none">
<g><path d="M26.37206581039689 10.765585897717022 C27.49293089004193 10.815990769434388, 27.586013342287487 12.74464458929664, 30.652177772061425 16.042365442515184 M30.79678985358159 15.331630823449913 C33.98780682950578 15.035748872662921, 37.73727524068771 14.908405569630716, 39.25133562520413 15.784620663269235 M38.21869400410136 15.031118862557808 C38.374396101837355 16.90644600557486, 39.02020149335361 18.829919653482467, 39.13772443195639 22.55795695292651 M38.42529846799436 22.00442755951733 C40.8908708026753 24.79636331252784, 41.304431131392064 26.708463435568802, 43.77008229111648 28.704921903690405 M44.54989501279961 27.183742043425386 C42.045146543818646 29.374491474271476, 41.266659471261356 30.653433183011582, 38.21643430220408 32.89213558324541 M38.83986629421969 32.83664128461358 C39.335577354767615 35.47927709905172, 38.67471720878742 38.2721852021787, 38.812568631821875 41.50274039618687 M39.253259332885634 41.15590297837152 C37.66362927169287 40.646463870971786, 34.59565587137179 40.54192668014036, 30.689576498956214 40.18826926017446 M30.61811717450477 40.84515738472258 C30.36027361299224 41.55932915674678, 29.617301239982424 42.532774508981525, 26.15710865341997 45.41868706948979 M25.83710872522438 45.33130914416749 C23.306271027177754 44.71383150317429, 22.705044944216084 42.63297789499485, 21.410832009112255 39.76647897711958 M20.433890920473893 40.91005133619263 C18.090294257763194 41.3639785984798, 15.367005596096153 40.864761723219296, 13.94938717779289 40.58168921626558 M13.763150439944347 40.4479285230188 C14.162814508087008 39.433377244216864, 13.49481139268733 36.45130630904158, 14.305573063088344 32.46062404437758 M13.348785937174306 33.95804844473489 C11.844808051885703 30.961859038514653, 10.320142654281824 30.24243219109687, 7.696663161898428 27.228733081805625 M8.688814831316618 27.403106196379554 C10.137537797852783 26.261692614743378, 10.897490437750037 25.07312809578042, 13.906584396928896 23.11928125181685 M14.318021297994314 23.012927401437185 C14.191711696716856 20.005964000563168, 13.09228202029641 17.811177820191066, 13.72825535899175 15.819869217635972 M13.461547480486729 15.654207045613413 C14.433664975392931 15.785377269566084, 15.683025303250304 14.92143813010283, 20.68245878551994 15.997093349243409 M20.133418247871173 16.16968883390383 C22.872707653384904 13.018004861333058, 24.77582937178142 11.751189847231608, 25.53460927170268 10.376792000253095" stroke="#2B4A7C" stroke-width="2.9" fill="none"></path></g><g><path d="M27.24091096127666 25.346485258546796 C27.716289898896573 25.853935131072095, 28.291793296433767 26.72441299414733, 28.860321334413438 27.279276233640367 C29.42884937239311 27.834139473133405, 30.914010596081315 28.078491593616178, 30.652079189154684 28.67566469550503 C30.390147782228052 29.272837797393883, 28.206510187503678 30.37110439504381, 27.28873289285365 30.862314844973476 C26.37095559820362 31.35352529490314, 25.939965106917885 31.545952692281805, 25.145415421254505 31.62292739508301 C24.350865735591125 31.699902097884216, 23.11862970772928 31.794814765406816, 22.521434778873363 31.324163061780705 C21.924239850017447 30.853511358154595, 21.358812660030654 29.9304654349609, 21.56224584811901 28.799017173326344 C21.765679036207363 27.667568911691788, 23.24594501793186 25.218149756708407, 23.74203390740348 24.535473491973377 C24.238122796875103 23.852797227238348, 23.821827466263695 24.636974318504357, 24.538779184948734 24.70295958491618 C25.255730903633772 24.768944851328, 27.29865621665413 24.67459557922956, 28.04374421951372 24.931385090444298 C28.78883222237331 25.188174601659036, 28.833571962579242 26.053852191943243, 29.009307202106275 26.243696652204605" stroke="#2B4A7C" stroke-width="2.9" fill="none"></path></g><g><path d="M43.883089788071814 30.227160014398397 L40.44105502497405 40.56711052227765 L46.99202086459845 42.63915503192693 L41.85254614483565 55.4549573617056 L53.446806891076264 40.41543914247304 L46.46284631621093 41.654529817588624 L53.40882482063025 28.982916642911732" stroke="none" stroke-width="0" fill="#2B4A7C" fill-rule="evenodd"></path><path d="M46.65998387941541 31.358024136273162 C45.57921824476541 32.05418707624334, 42.69268253879402 35.91648353028766, 39.099206444981434 42.90885247442879 M39.71114504029974 41.842240308914334 C42.24835909219459 41.68920899645761, 45.23166618837044 41.67017602877096, 46.438468009140344 42.40926921347156 M45.19410781087133 41.60002068448078 C44.72019492925683 44.636807822152015, 45.059315451977206 47.723853078901755, 43.1682602640926 53.56123869918198 M41.96432687965194 52.021021631573255 C47.78926273638802 49.89835137321319, 48.29424392138691 45.65626628853091, 53.44210697932676 41.7104859477693 M54.434180263672026 39.35550771227106 C52.01600761195645 40.0831939643018, 51.01043912054971 40.0999820875518, 47.82347937086597 39.7727110712789 M48.5700848183841 39.51047739274037 C50.30070085679911 35.905947632440444, 50.65414460751733 32.47528143225249, 52.16048781544128 31.101687175904416 M52.439997901711614 30.338713521268218 C51.17591016968712 29.979939726816863, 48.73520357551053 29.9431367131345, 45.62588005105034 29.775944250728934" stroke="#2B4A7C" stroke-width="2.9" fill="none"></path></g>
</svg>
