<?xml version="1.0" encoding="UTF-8"?>
<!-- RTN V2 Ledger icon — 3.7 Brand & Visual -->
<!-- Generated with rough.js · roughness 1.1 · bowing 1.6 · stroke 2.9 · seed 307 -->
<svg xmlns="http://www.w3.org/2000/svg" viewBox="0 0 64 64" width="64" height="64" fill="none">
<g><path d="M31.750413635303875 10.986408361446871 C33.921698595931694 10.724488132767002, 37.28876094388417 11.835135148654244, 39.285599982969856 13.27802001024845 C41.28243902205554 14.720904871842658, 43.186957584738444 17.115988251746543, 43.73144786981799 19.643717531012115 C44.27593815489754 22.171446810277686, 43.95916461351897 26.10301794085301, 42.55254169344715 28.444395685841876 C41.14591877337532 30.78577343083074, 37.690124001156505 32.8573471945641, 35.29171034938703 33.69198400094531 C32.89329669761756 34.52662080732652, 30.157605390141054 34.4368667953872, 28.162059782830312 33.45221652412916 C26.16651417551957 32.46756625287112, 24.71126290402846 29.84540884015049, 23.318436705522572 27.78408237339705 C21.925610507016685 25.722755906643613, 19.56239321138017 23.478739580330394, 19.805102591794984 21.08425772360852 C20.0478119722098 18.689775866886645, 22.577809725355216 15.267061505474926, 24.774692988011473 13.417191233065804 C26.97157625066773 11.567320960656682, 31.251480815977633 10.229098345937235, 32.98640216773253 9.985036089153791 C34.72132351948743 9.740973832370347, 35.02888807169892 11.638378963711844, 35.184221098540846 11.952817692365144" stroke="#2B4A7C" stroke-width="2.9" fill="none"></path></g><g><path d="M21.75041363530388 28.98640836144687 C23.9216985959317 28.724488132767, 27.288760943884167 29.835135148654246, 29.285599982969853 31.278020010248454 C31.282439022055538 32.72090487184266, 33.186957584738444 35.11598825174654, 33.73144786981799 37.643717531012115 C34.27593815489754 40.171446810277686, 33.95916461351898 44.10301794085301, 32.552541693447154 46.444395685841876 C31.145918773375328 48.785773430830744, 27.69012400115651 50.8573471945641, 25.291710349387035 51.69198400094531 C22.89329669761756 52.52662080732652, 20.157605390141057 52.4368667953872, 18.162059782830312 51.45221652412916 C16.166514175519566 50.46756625287112, 14.711262904028459 47.84540884015049, 13.31843670552257 45.78408237339705 C11.925610507016682 43.722755906643606, 9.562393211380165 41.47873958033039, 9.805102591794983 39.084257723608516 C10.0478119722098 36.68977586688664, 12.57780972535522 33.26706150547493, 14.774692988011477 31.417191233065807 C16.971576250667734 29.567320960656687, 21.25148081597763 28.229098345937235, 22.986402167732525 27.98503608915379 C24.72132351948742 27.740973832370347, 25.028888071698915 29.63837896371184, 25.184221098540842 29.95281769236514" stroke="#2B4A7C" stroke-width="2.9" fill="none"></path></g><g><path d="M41.75041363530387 28.98640836144687 C43.921698595931694 28.724488132767, 47.28876094388417 29.835135148654246, 49.285599982969856 31.278020010248454 C51.28243902205554 32.72090487184266, 53.186957584738444 35.11598825174654, 53.73144786981799 37.643717531012115 C54.27593815489754 40.171446810277686, 53.95916461351897 44.10301794085301, 52.55254169344715 46.444395685841876 C51.14591877337532 48.785773430830744, 47.69012400115651 50.8573471945641, 45.29171034938704 51.69198400094531 C42.893296697617565 52.52662080732652, 40.15760539014106 52.4368667953872, 38.16205978283031 51.45221652412916 C36.166514175519566 50.46756625287112, 34.71126290402846 47.84540884015049, 33.31843670552257 45.78408237339705 C31.925610507016685 43.722755906643606, 29.56239321138017 41.47873958033039, 29.805102591794984 39.084257723608516 C30.0478119722098 36.68977586688664, 32.577809725355216 33.26706150547493, 34.77469298801147 31.417191233065807 C36.97157625066773 29.567320960656687, 41.25148081597763 28.229098345937235, 42.98640216773253 27.98503608915379 C44.72132351948743 27.740973832370347, 45.02888807169892 29.63837896371184, 45.184221098540846 29.95281769236514" stroke="#2B4A7C" stroke-width="2.9" fill="none"></path></g>
</svg>
