<?xml version="1.0" encoding="UTF-8"?>
<!-- RTN V2 Ledger icon — 3.1 Finance -->
<!-- Generated with rough.js · roughness 1.1 · bowing 1.6 · stroke 2.9 · seed 301 -->
<svg xmlns="http://www.w3.org/2000/svg" viewBox="0 0 64 64" width="64" height="64" fill="none">
<g><path d="M13.351978261712938 39.38267114525661 C13.938867480630428 40.58592025512829, 13.822929648632556 42.158950916361064, 14.372242768649011 45.37068545645103 M14 46 C13.882174673490226 50.65366404671222, 21.217198845557867 51.60547392386943, 30.392227825336157 49.42935680169612 M32 51 C40.79457388799638 49.47614747304469, 51.31467134039849 48.30027237553149, 52.03177910130471 46.00899907965213 M50.468777406867595 45.59420690560714 C49.37194428815767 44.43141979290173, 49.31066025926992 43.097014275807894, 49.44697427039966 40.57500646198169" stroke="#2B4A7C" stroke-width="2.9" fill="none"></path></g><g><path d="M13.351978261712938 29.38267114525661 C13.938867480630428 30.585920255128297, 13.822929648632556 32.158950916361064, 14.372242768649011 35.37068545645103 M14 36 C13.882174673490226 40.65366404671222, 21.217198845557867 41.60547392386943, 30.392227825336157 39.42935680169612 M32 41 C40.79457388799638 39.47614747304469, 51.31467134039849 38.30027237553149, 52.03177910130471 36.00899907965213 M50.468777406867595 35.59420690560714 C49.37194428815767 34.43141979290173, 49.31066025926992 33.097014275807894, 49.44697427039966 30.575006461981683" stroke="#2B4A7C" stroke-width="2.9" fill="none"></path></g><g><path d="M23.295196120951957 17.17297218125866 C26.330801171335594 16.608841013692174, 32.22301658536533 15.845709187308582, 35.72989311862367 15.984016460734448 C39.236769651882014 16.122323734160315, 42.13080919613074 16.854635393839906, 44.336455320502 18.00281582181386 C46.54210144487325 19.150996249787816, 48.92842562989932 21.60932088130229, 48.96376986485123 22.87309902857817 C48.99911409980314 24.136877175854053, 46.73942959994525 24.899718898766203, 44.54852073021343 25.585484705469145 C42.35761186048162 26.271250512172088, 39.45124792740538 26.986937545979604, 35.81831664646035 26.98769386879583 C32.18538536551532 26.988450191612056, 25.95266484252728 26.198885885346602, 22.75093304454324 25.590022642366506 C19.549201246559196 24.98115939938641, 17.90288950985557 24.107246612040854, 16.6079258585561 23.33451441091525 C15.312962207256632 22.561782209789648, 13.84032184322942 21.795572627684063, 14.981151136746425 20.953629435612886 C16.121980430263427 20.11168624354171, 21.889965979765922 19.01341448320482, 23.452901619658125 18.28285525848818 C25.015837259550327 17.55229603377154, 24.19528068076752 16.797666989704023, 24.35876497609964 16.570274087313038" stroke="#2B4A7C" stroke-width="2.9" fill="none"></path></g><g><path d="M13.351978261712938 21.38267114525661 C13.938867480630428 22.585920255128297, 13.822929648632556 24.158950916361064, 14.372242768649011 27.370685456451028 M14 28 C13.882174673490226 32.65366404671222, 21.217198845557867 33.60547392386943, 30.392227825336157 31.429356801696123 M32 33 C40.79457388799638 31.476147473044694, 51.31467134039849 30.300272375531495, 52.03177910130471 28.00899907965213 M50.468777406867595 27.594206905607134 C49.37194428815767 26.431419792901725, 49.31066025926992 25.097014275807886, 49.44697427039966 22.575006461981683" stroke="#2B4A7C" stroke-width="2.9" fill="none"></path></g>
</svg>
