<?xml version="1.0" encoding="UTF-8"?>
<!-- RTN V2 Ledger icon — 3.8 Onboarding -->
<!-- Generated with rough.js · roughness 1.1 · bowing 1.6 · stroke 2.9 · seed 308 -->
<svg xmlns="http://www.w3.org/2000/svg" viewBox="0 0 64 64" width="64" height="64" fill="none">
<g><path d="M25.840856086462736 8.76414964273572 C31.89786659479141 10.507703070300817, 38.49102135971189 11.44538615192771, 51.73013037368655 8.723268223553896 M48.26421437337994 11.09201742336154 C51.305886762672664 25.723589048534635, 49.67228459649682 43.47426391467452, 50.538383460789916 55.9080357901752 M49.23539789840579 53.09195394590497 C41.91329523175955 54.72329336273074, 34.4100272513926 54.41193698512912, 26.1175791375339 52.0625478990376" stroke="#2B4A7C" stroke-width="2.9" fill="none"></path></g><g><path d="M26.219524316715276 12.98089168790841 C30.7393159305399 15.202270565331256, 35.744872243838806 16.781042406542035, 45.426702055359804 16.94718000602605 M42.26421437337994 19.09201742336154 C45.16056575964093 29.206996773928406, 43.52696359346509 42.441079365462066, 44.538383460789916 51.9080357901752 M43.36949295471157 49.25120604120817 C38.22389735098665 52.187336547378074, 32.87331463714118 53.49342687315774, 26.447715990437196 52.402336068631435 M29.50641610696912 55.81189950630069 C27.031710302859544 43.54864660128951, 29.776632154017687 31.43562486693263, 28.699750996381045 12.880346309393644" stroke="#2B4A7C" stroke-width="2.9" fill="none"></path></g><g><path d="M30.576830065549476 33.95699586720668 C30.688445372493494 34.1068272158395, 29.76591439080174 33.40705524254564, 29.96267950151043 33.249444330205996 C30.15944461221912 33.091833417866354, 31.544075851448348 32.92646280361438, 31.757420729801602 33.01133039316882 C31.970765608154856 33.09619798272326, 31.588671209032572 33.560398175081474, 31.24274877162995 33.75864986753265 C30.89682633422733 33.95690155998382, 29.97085552857169 34.1609610002358, 29.681886105385875 34.200840547875835 C29.39291668220006 34.24072009551587, 29.55145608588754 33.98389391570914, 29.50893223251505 33.99792715337283 C29.46640837914256 34.01196039103652, 29.63568600832183 34.3327124242441, 29.426742985150927 34.28503997385798 C29.217799961980024 34.23736752347185, 28.36048094863411 33.89530001588248, 28.255274093489625 33.71189245105609 C28.15006723834514 33.52848488622969, 28.369571598569124 33.14733927707097, 28.795501854284026 33.18459458489958 C29.22143210999893 33.22184989272819, 30.62800297382214 33.910145932924266, 30.810855627779052 33.93542429802776 C30.993708281735962 33.96070266313126, 29.9697538785619 33.3350306977152, 29.8926177780255 33.33626477552057" stroke="none" stroke-width="0" fill="#2B4A7C"></path><path d="M30.527470382023825 33.68988936197062 C30.895753047901913 33.4884289428213, 31.032223639284584 32.36496579457021, 31.223905834256062 32.46796022934943 C31.41558802922754 32.57095466412865, 31.733321402708384 34.162876675418644, 31.677563551852696 34.30785597064592 C31.621805700997008 34.45283526587319, 30.981553172524187 33.19735522490967, 30.889358729121927 33.33783600071305 C30.797164285719667 33.47831677651642, 31.34871378007096 34.95123942407138, 31.12439689143913 35.15074062546617 C30.9000800028073 35.35024182686096, 29.807554919718186 34.56269556564573, 29.543457397330947 34.53484320908179 C29.279359874943708 34.50699085251785, 29.460923145351455 34.884888925440514, 29.539811757115704 34.983626486082535 C29.618700368879953 35.08236404672456, 29.928553369496626 35.51366346470154, 30.01678906791645 35.127268572933914 C30.10502476633627 34.74087368116629, 30.177611979304938 33.084005486967435, 30.06922594763464 32.66525713547679 C29.96083991596434 32.24650878398615, 29.37063040324978 32.46168687787885, 29.366472877894648 32.61477846399005 C29.362315352539515 32.76787005010125, 29.842936657057216 33.43427452225652, 30.044280795503834 33.583806652144006" stroke="#2B4A7C" stroke-width="2.9" fill="none"></path></g><g><path d="M8.704513651877642 33.25848978564143 C12.097058387845756 34.292333826440576, 15.811289677768947 34.85494367541671, 23.03807822421193 33.23396093413234" stroke="#2B4A7C" stroke-width="2.9" fill="none"></path></g><g><path d="M17.389301878872057 29.650448732738646 C18.611248987030834 30.926379841547444, 20.028489410376753 31.99713523122666, 22.48935476782823 33.63888572124745 M21.509045685092328 34.308869170093125 C20.76155917913177 35.26650001241363, 18.79397595314411 37.108567361007466, 18.152277838401293 38.53967401839181" stroke="#2B4A7C" stroke-width="2.9" fill="none"></path></g>
</svg>
