<?xml version="1.0" encoding="UTF-8"?>
<!-- RTN V2 Ledger icon — 3.2 SOPs -->
<!-- Generated with rough.js · roughness 1.1 · bowing 1.6 · stroke 2.9 · seed 302 -->
<svg xmlns="http://www.w3.org/2000/svg" viewBox="0 0 64 64" width="64" height="64" fill="none">
<g><path d="M14.982917331531644 15.202510363981128 C22.826655757054688 15.277351632103324, 29.424665499106048 13.311053874477745, 48.167855106666686 14.533853907510638 M48.02659980766475 15.999315785244107 C49.417018838724495 26.5458567943424, 48.04381151994169 37.37931072153151, 49.39932404272258 58.77086626179516 M47.89314988739788 59.838214583322404 C41.77107736878097 59.62025630298555, 28.014225873723625 56.257822452220324, 16.139963959529997 57.40029047243297 M15.977070338651538 57.16231704838574 C14.15380613528192 45.09510767571628, 12.188112625703216 33.86091717816889, 13.728976626321673 12.630729173496366" stroke="#2B4A7C" stroke-width="2.9" fill="none"></path></g><g><path d="M24.786333865225316 8.962008291184903 C28.483946463763715 9.067442491710185, 31.18497611552477 7.494404285609722, 38.53428408533335 8.42708312600851 M39.013299903832376 8.999657892622054 C39.69630505924672 11.29367233570665, 39.00970139985531 13.731143237836658, 39.69966202136129 18.38543313089758 M38.31451990991831 19.470571666657925 C37.0737771615386 19.32162590836287, 29.72521123200655 16.631678827750683, 25.711971167623997 17.520232377946378 M24.98853516932577 17.58115852419287 C24.091203929297624 14.613769189827144, 23.10835717450827 12.062889293022454, 23.864488313160837 7.315364586748183" stroke="#2B4A7C" stroke-width="2.9" fill="none"></path></g><g><path d="M22.982917331531645 31.202510363981126 C27.604933079704644 31.334303114637734, 30.98122014440596 29.368005357012155, 40.167855106666686 30.53385390751064" stroke="#2B4A7C" stroke-width="2.9" fill="none"></path></g><g><path d="M22.982917331531645 39.202510363981126 C27.604933079704644 39.334303114637734, 30.98122014440596 37.36800535701215, 40.167855106666686 38.53385390751064" stroke="#2B4A7C" stroke-width="2.9" fill="none"></path></g><g><path d="M22.68804213207215 46.84175725478679 C25.92345315579325 46.93401218024641, 28.286854101084174 45.55760374990851, 34.71749857466668 46.373697735257444" stroke="#2B4A7C" stroke-width="2.9" fill="none"></path></g>
</svg>
