<?xml version="1.0" encoding="UTF-8"?>
<!-- RTN V2 Ledger icon — 3.10 Templates -->
<!-- Generated with rough.js · roughness 1.1 · bowing 1.6 · stroke 2.9 · seed 310 -->
<svg xmlns="http://www.w3.org/2000/svg" viewBox="0 0 64 64" width="64" height="64" fill="none">
<g><path d="M7.726835671439767 14.88469606898725 C16.430840421095493 12.59051187504232, 27.731613740697505 15.962855236420037, 55.98422212935984 13.58640632890165 M55.81008589528501 11.856251302734018 C54.453313925763965 20.230141347274184, 55.66624681045711 31.200531407073143, 53.984736600145695 50.82042563296854 M54.21614723540843 49.64320040009916 C43.69219531454146 49.074708326992386, 35.471615967527036 51.2470444404453, 9.176784196868539 50.54996704123914 M6.416198029741645 48.295093658939 C7.6946815011471505 43.5032049190253, 6.143141805884241 34.23395144827664, 6.090009119734168 14.43021868802607" stroke="#2B4A7C" stroke-width="2.9" fill="none"></path></g><g><path d="M21.726835671439765 24.88469606898725 C26.40296778045595 22.528381740877034, 33.67586845941842 25.90072510225475, 49.98422212935984 23.58640632890165 M49.829077305756506 22.070626172460614 C48.549310672383015 26.452281997762622, 49.640950268606844 33.17078783679754, 48.18626294013113 42.73838306967169 M48.21614723540843 41.64320040009916 C42.20649442784488 41.176089889761805, 38.50021419413388 43.34842600321472, 23.17678419686854 42.54996704123914 M20.574578226767482 40.465584293045104 C21.873745008437336 39.07153380107135, 20.477359282700718 33.64785505134612, 20.281008207760753 24.387196819223462" stroke="#2B4A7C" stroke-width="2.9" fill="none"></path></g>
</svg>
