<?xml version="1.0" encoding="UTF-8"?>
<!-- RTN V2 Ledger icon — 3.6 Tools & Stack -->
<!-- Generated with rough.js · roughness 1.1 · bowing 1.6 · stroke 2.9 · seed 306 -->
<svg xmlns="http://www.w3.org/2000/svg" viewBox="0 0 64 64" width="64" height="64" fill="none">
<g><path d="M18 10 C12.514601560398752 10.354876501485705, 13.04360321648419 12.857154409304076, 9.830264293029904 13.88768884651363 M11.607996384745611 15.092130097436025 C14.619667855391889 17.55067803295917, 15.849081419138408 21.20264546380516, 17.969361152544845 21.507621139472388 M17.630050308279877 21.60278869048276 C19.58314634002819 20.647760784519665, 20.93086505087638 19.701475093392613, 21.587249748661588 17.460147270646505 M21.458374078199267 17.975128756836057 C29.344764428296685 22.781933365127447, 35.3481101688832 30.702000330498812, 50.92870535366237 43.936126636341214 M49.69155800623432 46.48945194044312 C49.492850107899685 47.639948794225155, 47.59684919732587 48.246940038731786, 46.21384178332704 50.40791101594147 M45.95129112713039 48.37399771101773 C37.82760905149281 44.24549056747854, 32.53143818425834 37.02360241794884, 15.839610607549549 22.243637024238705" stroke="#2B4A7C" stroke-width="2.9" fill="none"></path></g><g><path d="M48.15056134841058 12.442763346746437 C49.17935395539429 14.21339685932197, 49.66275538619302 14.786537120575993, 53.60799638474561 17.092130097436026 M55.11834285147488 17.92778354398906 C45.16732207994461 24.976873484277725, 37.746248934152725 31.614205442020292, 30.69203032143414 38.595645947381854 M32.10803823475254 39.38087462299238 C29.08627933615567 37.23102537359913, 28.636789343293785 35.77771408808219, 25.770207582696973 33.98944802518134 M26.19663418419659 34.92870535366237 C31.4369770637095 26.25806878146529, 41.31858169458211 18.03583209340274, 46.90949287302792 13.730473930761217" stroke="#2B4A7C" stroke-width="2.9" fill="none"></path></g><g><path d="M48.15056134841058 12.442763346746437 C46.76284615919616 14.004914625022787, 44.829739793796755 14.57805488627681, 41.60799638474561 17.092130097436026" stroke="#2B4A7C" stroke-width="2.9" fill="none"></path></g><g><path d="M54.15056134841058 18.44276334674644 C55.38213582612899 17.79688906312384, 55.865537256927716 15.953521528179735, 59.60799638474561 11.092130097436025" stroke="#2B4A7C" stroke-width="2.9" fill="none"></path></g>
</svg>
