<?xml version="1.0" encoding="UTF-8"?>
<!-- RTN V2 Ledger icon — 4.9 Cancellation -->
<!-- Generated with rough.js · roughness 1.1 · bowing 1.6 · stroke 2.9 · seed 409 -->
<svg xmlns="http://www.w3.org/2000/svg" viewBox="0 0 64 64" width="64" height="64" fill="none">
<g><path d="M34.48282512780279 8.051744168438017 C32.902303377911444 10.053995063982905, 25.91945370901376 10.742022273026407, 13.361764035187662 10.511742543615402 M15.530726229585706 10.485828331671655 C13.908230149133503 26.415415327437223, 13.024648051841556 38.872642665915194, 15.379216998256743 53.78372285123915 M14.563239417038858 54.52989988271147 C23.482990530133247 53.36642133175582, 30.090739651955666 55.2815357524082, 36.807434633933006 54.47721458021552" stroke="#2B4A7C" stroke-width="2.9" fill="none"></path></g><g><path d="M34.74890554987959 12.393427084148875 C33.91702537159041 14.818465868020041, 28.59109084022443 16.19318241991618, 19.473697140602148 18.42199371208971 M21.530726229585706 18.485828331671655 C19.77491232367903 30.42033013161272, 18.891330226387083 38.882472274266185, 21.379216998256744 49.78372285123915 M20.464459121792505 50.43696663748436 C26.992776823621796 50.88470677934729, 31.67400099990525 53.897723708511194, 36.665827656297544 54.393521224062674 M35.45040320698172 52.013204214535655 C37.6521867333427 39.51167681794614, 34.62580049023777 22.266787566803394, 36.90778622571379 14.14890143033117" stroke="#2B4A7C" stroke-width="2.9" fill="none"></path></g><g><path d="M34.09903470023721 32.059874611110786 C34.32479695189744 32.11109504264655, 35.86881447472222 33.55887023418582, 35.93528443045461 33.76966131299498 C36.001754386186995 33.980452391804135, 34.65047430999908 33.136145437194926, 34.497854434631535 33.32462108396572 C34.345234559263986 33.51309673073651, 35.27647358207234 34.46942636339774, 35.019565178249294 34.9005151936197 C34.76265677442625 35.331604023841656, 33.12313753856709 36.06489612799574, 32.956404011693245 35.911154065297474 C32.789670484819396 35.75741200259921, 33.937375907072365 34.14400170117056, 34.01916401700621 33.97806281743013 C34.10095212694006 33.8121239336897, 33.48577342885132 35.06016576105031, 33.44713267129634 34.91552076285488 C33.40849191374136 34.77087576465946, 33.85515492940036 33.508797544074554, 33.78731947167633 33.11019282825758 C33.71948401395229 32.71158811244061, 33.00728460320695 32.42598593376236, 33.04011992495212 32.52389246795307 C33.0729552466973 32.621799002143774, 33.88472505641935 33.41317515017227, 33.98433140214736 33.69763203340182 C34.083937747875375 33.98208891663136, 33.526207892570355 34.44937282896727, 33.63775799932019 34.23063376733033" stroke="none" stroke-width="0" fill="#2B4A7C"></path><path d="M32.957413368669414 33.28862737135886 C32.95684524864051 33.245564675399564, 33.52054815218909 33.11937415067876, 33.879075228095 33.24813293287468 C34.2376023040009 33.376891715070606, 34.82603847446046 33.80203423962271, 35.108575824104854 34.06118006453438 C35.39111317374925 34.32032588944606, 35.60157763929362 34.74644492627839, 35.57429932596135 34.80300788234474 C35.547021012629074 34.85957083841108, 35.03836939536459 34.486272407641785, 34.94490594411121 34.400557800932454 C34.851442492857835 34.31484319422312, 35.29015954139216 34.095025737046825, 35.013518618441076 34.28872024208875 C34.736877695489994 34.482414747130676, 33.62203410333774 35.450885591263216, 33.28506040640473 35.562724831184006 C32.948086709471724 35.6745640711048, 33.173382450196996 35.41421153092407, 32.99167643684303 34.95975568161349 C32.80997042348906 34.5052998323029, 32.03996869824213 33.110574994000274, 32.19482432628095 32.835989735320496 C32.349679954319775 32.56140447664072, 33.531850673683635 33.35484846688638, 33.920810205075966 33.3122441295348 C34.3097697364683 33.26963979218321, 34.54290169746091 32.52462282012255, 34.528581514634915 32.58036371121097" stroke="#2B4A7C" stroke-width="2.9" fill="none"></path></g><g><path d="M41.08969507668167 32.83104650106281 C45.227717144899074 33.63922511368245, 46.12434246171266 34.05204143910855, 53.617058421112596 34.30704552616924" stroke="#2B4A7C" stroke-width="2.9" fill="none"></path></g><g><path d="M49.570878143849406 29.448950036006515 C51.22632378036391 30.66313420850843, 51.31457970836978 31.665092471229716, 53.819479608513625 34.144742649124844 M54.43295475883207 34.13741300312703 C52.54852519996739 35.87166381154926, 50.966915377600486 36.58353215818679, 50.39010147687804 37.9388275845982" stroke="#2B4A7C" stroke-width="2.9" fill="none"></path></g>
</svg>
