<?xml version="1.0" encoding="UTF-8"?>
<!-- RTN V2 Ledger icon — 4.3 Client -->
<!-- Generated with rough.js · roughness 1.1 · bowing 1.6 · stroke 2.9 · seed 403 -->
<svg xmlns="http://www.w3.org/2000/svg" viewBox="0 0 64 64" width="64" height="64" fill="none">
<g><path d="M32.20478199658387 11.637105338771304 C34.226207800732794 11.513428041864813, 37.654714429303 12.674791087609938, 39.020602554923286 14.317686354553969 C40.386490680543574 15.960581621498, 40.31476988630031 19.12843767157265, 40.40011075030557 21.494476940435487 C40.48545161431083 23.86051620929832, 40.462443396546135 27.012133189242665, 39.53264773895486 28.513921967730987 C38.60285208136358 30.01571074621931, 36.8075684610177 29.99437805822176, 34.82133680475792 30.505209611365427 C32.83510514849814 31.016041164509094, 29.474172208594226 32.34235618683676, 27.615257801396176 31.578911286592998 C25.756343394198126 30.815466386349236, 24.55745248970075 28.081808042365378, 23.667850361569613 25.924540209902844 C22.778248233438475 23.76727237744031, 21.760741312841937 20.66547505131316, 22.277645032609357 18.635304291817796 C22.794548752376777 16.605133532322434, 24.67572778174456 14.803027517035062, 26.769272680174122 13.743515652930657 C28.862817578603686 12.684003788826253, 33.23274053213653 12.257599475511837, 34.838914423186736 12.278233107191369 C36.44508831423694 12.2988667388709, 36.25334502024756 13.734544346435747, 36.40631602647533 13.867317443007845" stroke="#2B4A7C" stroke-width="2.9" fill="none"></path></g><g><path d="M12 54 C13.275192659907043 43.6248863728717, 22.490104889683426 35.05312990862876, 29.839857876114547 34.97953792531043 M32 36 C40.61786578875035 36.1994887681678, 47.922328227572144 39.90587313491851, 52.83381941895932 52.097172585316" stroke="#2B4A7C" stroke-width="2.9" fill="none"></path></g>
</svg>
