<?xml version="1.0" encoding="UTF-8"?>
<!-- RTN V2 Ledger icon — 4.10 Invoice -->
<!-- Generated with rough.js · roughness 1.1 · bowing 1.6 · stroke 2.9 · seed 410 -->
<svg xmlns="http://www.w3.org/2000/svg" viewBox="0 0 64 64" width="64" height="64" fill="none">
<g><path d="M17.625814920291305 9.312017381563782 C21.250007569417356 6.740036079874635, 29.30218445621431 8.64539342879355, 48.68880991302431 6.743311596289277 M45.90366199053824 6.867945271357894 C45.72384146979153 24.945037369802595, 48.46352689793408 37.088468198105694, 45.90239356793463 51.23991777263582 M48.01516435338103 52.22783634133924 C46.689167203348525 50.0370000689752, 45.039066485657095 49.42614104087352, 44.038759963062546 48.48675085492138 M43.407527720744795 47.5629518057931 C43.180698604616154 49.23919074505169, 41.992565974156186 50.112629298323476, 39.88768748280328 51.639046770783 M40.512942759150775 51.53005442900281 C39.24067191247633 50.783891558403354, 38.1048029919344 50.24034448669029, 35.67244721425372 48.172791997473865 M36.121406876713685 48.043480457300234 C35.29398439986668 48.772435582564015, 32.97464929184692 50.50440373990527, 31.98094934472337 52.09718302421166 M31.549584848494167 51.563844160996865 C30.05614400328656 50.187554353717715, 29.01849906580438 48.75547268570176, 28.19854161267499 47.846578859528115 M28.225464374024767 48.16890795106686 C27.154080719741057 49.876723269646746, 25.45527078800832 50.57755231216201, 23.815584765085017 52.05745367509863 M24.16256654635516 51.38272170415027 C23.007882706396625 50.83872497268811, 20.297167902343634 48.69842266947391, 19.799236661513618 47.9361768992789 M19.9362965491242 48.14982988337459 C19.067632607508898 49.21585357757574, 17.45247687558859 51.17068075550607, 16.08824929349933 51.93098538345264 M14.828887742385268 52.44021267928183 C18.216544207569957 36.7764330741018, 14.94813964032829 24.2070874441415, 15.991850310191513 6.206323254480958" stroke="#2B4A7C" stroke-width="2.9" fill="none"></path></g><g><path d="M23.625814920291305 21.312017381563784 C24.82788928039372 18.75886184437573, 30.457947878167033 20.664219193294645, 42.68880991302431 18.743311596289278" stroke="#2B4A7C" stroke-width="2.9" fill="none"></path></g><g><path d="M23.625814920291305 29.312017381563784 C24.82788928039372 26.75886184437573, 30.457947878167033 28.664219193294645, 42.68880991302431 26.743311596289278" stroke="#2B4A7C" stroke-width="2.9" fill="none"></path></g><g><path d="M23.138070444203912 36.91841216709465 C23.979522496275603 35.13120329106301, 27.920563514716925 36.46495343530625, 36.482166939117015 35.12031811740249" stroke="#2B4A7C" stroke-width="2.9" fill="none"></path></g>
</svg>
