<?xml version="1.0" encoding="UTF-8"?>
<!-- RTN V2 Ledger icon — 4.7 Journal -->
<!-- Generated with rough.js · roughness 1.1 · bowing 1.6 · stroke 2.9 · seed 407 -->
<svg xmlns="http://www.w3.org/2000/svg" viewBox="0 0 64 64" width="64" height="64" fill="none">
<g><path d="M14.996845542825758 8.331197742186486 C23.312082427553833 9.246905014126003, 28.564367079921066 7.5002719434186815, 51.107672279514375 7.648604438267649 M49.98485470768064 7.321594452299178 C51.179407507817444 18.95617124270648, 47.44929035965651 32.04099160153419, 49.53286385890097 52.8713330084458 M51.58249008003622 51.97865342851728 C37.53585592415184 53.3175189248845, 27.492681889422236 52.748940854482356, 16.14822957459837 49.98979543801397 M12.140621284209193 53.530010061897336 C15.021951977019013 41.419565642438826, 11.892027280335128 29.193355269916353, 13.117528102360666 6.599029051698745" stroke="#2B4A7C" stroke-width="2.9" fill="none"></path></g><g><path d="M20.99684554282576 8.331197742186486 C22.21380345941335 18.432279937155545, 20.20021876812726 25.566153842024505, 21.10767227951437 51.64860443826765" stroke="#2B4A7C" stroke-width="2.9" fill="none"></path></g><g><path d="M36.3987382171303 52.1324790968746 C36.848956210926175 54.23534681655467, 36.04352233441174 55.1513312201947, 36.443068911805746 59.85944177530706 M35.995716264439174 59.80811793473047 C37.75848480840234 58.34671729083878, 37.86432828684973 57.27497273054991, 39.867873946756625 56.24645019157748 M40.44759578670162 55.9939622778198 C41.06730234198857 57.45723479351402, 42.81378014881218 58.59017130022434, 44.6076110798976 59.43142828905902 M43.25624851368368 60.61200402475893 C44.429234435030814 58.04371936492622, 43.177264556357265 55.42912832386792, 43.647011240944266 51.4396116206795" stroke="#2B4A7C" stroke-width="2.9" fill="none"></path></g>
</svg>
