<?xml version="1.0" encoding="UTF-8"?>
<!-- RTN V2 Ledger icon — 4.6 Meeting -->
<!-- Generated with rough.js · roughness 1.1 · bowing 1.6 · stroke 2.9 · seed 406 -->
<svg xmlns="http://www.w3.org/2000/svg" viewBox="0 0 64 64" width="64" height="64" fill="none">
<g><path d="M7.853855750337242 19.47092452906072 C14.638096874952316 16.351644956305623, 17.329073610529303 17.78768174572289, 31.78062640167773 19.41703538559377 M32 18 C36.60851467587054 17.21191894672811, 38.93947751261294 18.71901133917272, 37.31509799696505 24.695411499962212 M37.44387491568923 24.56605523481965 C38.062840085953475 25.48562650308013, 37.66730240914226 28.616012132912875, 37.881212080568076 32.06834110155702 M38 32 C37.8228588309139 34.41862704493106, 37.1460858669132 39.51088176704943, 33.63328314684331 39.01078127361834 M32.76188908990473 36.8682587910071 C26.351333367265763 39.22587484073192, 21.47940004300326 38.26048112463504, 18.01686500366777 38.97059204701334 M17.693523587471475 38.16516682046116 C16.68382255384751 38.56888223370341, 15.159481039508 40.312229697368664, 11.14570834705478 43.25804320587442 M12.44859069154588 43.52929252297133 C12.882191030088965 41.85341530535799, 13.48238289641613 39.65301515224041, 13.992209315678846 37.61446316152713 M13.969641520641744 38.20584289763123 C13.632857812978326 37.86061940644532, 12.839318390898407 37.83505411480218, 12.036432972811163 37.976030567623674 M12 38 C9.879116090759634 38.612817058339715, 10.092223116382957 35.902050921693444, 11.715297624096275 35.9316127512604 M10.277618265189231 36.271278949342665 C9.375925150091946 30.008891131170095, 11.455364197666942 27.991123025827108, 11.023199812211097 19.75813524182886" stroke="#2B4A7C" stroke-width="2.9" fill="none"></path></g><g><path d="M51.853855750337246 27.47092452906072 C49.75778770521283 23.792924195542934, 43.56845527105033 25.2289609849602, 31.78062640167773 27.41703538559377 M32 26 C28.608514675870538 25.21191894672811, 26.93947751261294 26.71901133917272, 25.31509799696505 32.69541149996221 M25.44387491568923 32.56605523481965 C26.062840085953475 33.48562650308013, 25.667302409142255 36.61601213291287, 25.881212080568076 40.06834110155702 M26 40 C25.8228588309139 42.41862704493106, 29.1460858669132 47.51088176704943, 33.63328314684331 47.01078127361834 M32.76188908990473 44.8682587910071 C37.008868040330704 47.296271248419586, 42.794469389133155 46.33087753232271, 46.016865003667775 46.97059204701334 M45.693523587471475 46.16516682046116 C47.10618726635404 46.41708708853749, 48.004210464521066 48.160434552202744, 51.14570834705478 51.25804320587442 M52.44859069154588 51.52929252297133 C51.383299601230924 49.851219846266325, 50.484600038700044 47.65081969314874, 49.99220931567884 45.61446316152713 M49.969641520641744 46.20584289763123 C50.69216530103236 45.81011700365096, 50.95793336700648 45.78455171200782, 52.03643297281116 45.976030567623674 M52 46 C51.87911609075964 46.612817058339715, 54.092223116382954 43.902050921693444, 55.71529762409627 43.9316127512604 M54.27761826518923 44.271278949342665 C53.375925150091945 38.008891131170095, 55.455364197666945 35.991123025827115, 55.0231998122111 27.75813524182886" stroke="#2B4A7C" stroke-width="2.9" fill="none"></path></g>
</svg>
