<?xml version="1.0" encoding="UTF-8"?>
<!-- RTN V2 Ledger icon — 4.5 Partner -->
<!-- Generated with rough.js · roughness 1.1 · bowing 1.6 · stroke 2.9 · seed 405 -->
<svg xmlns="http://www.w3.org/2000/svg" viewBox="0 0 64 64" width="64" height="64" fill="none">
<g><path d="M17.721950855473388 20.860144132957032 C19.751244340649414 19.65627924983288, 21.88947270440117 19.23131693962299, 24.044062373218733 19.847245103164937 C26.198652042036294 20.463173266706885, 28.948767265264262 22.509000113924333, 30.649488868378754 24.55571311420872 C32.35021047149324 26.60242611449311, 34.49103723728972 29.501742037030542, 34.24839199190568 32.12752310487127 C34.00574674652164 34.75330417271201, 31.132201032467947 38.17354906026652, 29.19361739607453 40.31039952125311 C27.255033759681112 42.447249982239704, 24.73158725327342 44.52022060187675, 22.616890173545166 44.94862587079084 C20.50219309381691 45.37703113970493, 18.267039552976374 44.52494027666718, 16.50543491770499 42.88083113473765 C14.743830282433604 41.236721992808114, 13.037775731156199 37.64707171684416, 12.047262361916859 35.08397101921362 C11.05674899267752 32.52087032158308, 9.665493537825657 29.943513683838134, 10.562354702268951 27.5022269489544 C11.459215866712245 25.06094021407067, 15.814603847081967 21.7498969810715, 17.42842934857663 20.436250609911237 C19.042254850071288 19.122604238750974, 19.930804040217517 19.432364368836478, 20.24530771123692 19.620348721992816" stroke="#2B4A7C" stroke-width="2.9" fill="none"></path></g><g><path d="M37.72195085547339 20.860144132957032 C39.751244340649414 19.65627924983288, 41.88947270440117 19.23131693962299, 44.04406237321873 19.847245103164937 C46.19865204203629 20.463173266706885, 48.948767265264266 22.509000113924333, 50.649488868378754 24.55571311420872 C52.35021047149324 26.60242611449311, 54.49103723728972 29.501742037030542, 54.24839199190568 32.12752310487127 C54.00574674652164 34.75330417271201, 51.13220103246795 38.17354906026652, 49.19361739607453 40.31039952125311 C47.25503375968111 42.447249982239704, 44.73158725327342 44.52022060187675, 42.616890173545166 44.94862587079084 C40.50219309381691 45.37703113970493, 38.26703955297638 44.52494027666718, 36.505434917704996 42.88083113473765 C34.74383028243361 41.236721992808114, 33.037775731156195 37.64707171684416, 32.04726236191686 35.08397101921362 C31.056748992677516 32.52087032158308, 29.665493537825657 29.943513683838134, 30.56235470226895 27.5022269489544 C31.459215866712245 25.06094021407067, 35.81460384708196 21.7498969810715, 37.42842934857662 20.436250609911237 C39.04225485007128 19.122604238750974, 39.93080404021752 19.432364368836478, 40.24530771123692 19.620348721992816" stroke="#2B4A7C" stroke-width="2.9" fill="none"></path></g>
</svg>
