<?xml version="1.0" encoding="UTF-8"?>
<!-- RTN V2 Ledger icon — 4.4 Prospect -->
<!-- Generated with rough.js · roughness 1.1 · bowing 1.6 · stroke 2.9 · seed 404 -->
<svg xmlns="http://www.w3.org/2000/svg" viewBox="0 0 64 64" width="64" height="64" fill="none">
<g><path d="M42.46386995346681 12.719279696382948 C44.208601466276484 12.369674228993482, 47.649500832688844 13.462357049668407, 49.10936694386208 14.66291333107341 C50.56923305503531 15.863469612478413, 50.854775372120486 18.006077927571, 51.22306662050623 19.922617384812966 C51.591357868891976 21.839156842054933, 51.84714447411457 24.430231936353316, 51.31911443417657 26.16215007452521 C50.79108439423857 27.894068212697107, 49.58673449254317 29.575564609112956, 48.0548863808782 30.314126213844332 C46.52303826921323 31.05268781857571, 43.97758273709097 30.947440209624634, 42.12802576418674 30.593519702913476 C40.278468791282506 30.239599196202317, 38.2225471813156 29.694045056435186, 36.95754454345282 28.190603173577387 C35.69254190559004 26.687161290719587, 34.35500151036197 23.72203596482456, 34.53800993701007 21.57286840576668 C34.72101836365816 19.4237008467088, 36.45745003563445 16.764790340455473, 38.0555951033414 15.295597819230114 C39.653740171048355 13.826405298004754, 42.487957379888854 13.0913606489117, 44.1268803432518 12.757713278414526 C45.76580330661474 12.424065907917353, 47.671949019184964 13.15667606171391, 47.88913288351905 13.293713596247073" stroke="#2B4A7C" stroke-width="2.9" fill="none"></path></g><g><path d="M28 54 C31.921036810427903 44.367876165360215, 35.35037810280919 38.9014007024467, 41.839956779032946 37.353680699318645 M44 38 C50.91468431428075 39.526534646004436, 58.55389728024602 42.375614755600694, 59.913307804614305 53.681036537140606" stroke="#2B4A7C" stroke-width="2.9" fill="none"></path></g><g><path d="M8.045984520670027 31.91879726285115 C8.617215630877762 31.95074273936823, 8.969210653286428 31.825914803076536, 10.690816830750554 32.06923716003075" stroke="#2B4A7C" stroke-width="2.9" fill="none"></path></g><g><path d="M13.045984520670027 31.91879726285115 C13.617215630877762 31.95074273936823, 13.969210653286428 31.825914803076536, 15.690816830750554 32.06923716003075" stroke="#2B4A7C" stroke-width="2.9" fill="none"></path></g><g><path d="M18.045984520670025 31.91879726285115 C18.617215630877762 31.95074273936823, 18.969210653286428 31.825914803076536, 20.690816830750556 32.06923716003075" stroke="#2B4A7C" stroke-width="2.9" fill="none"></path></g><g><path d="M23.045984520670025 31.91879726285115 C23.617215630877762 31.95074273936823, 23.969210653286428 31.825914803076536, 25.690816830750556 32.06923716003075" stroke="#2B4A7C" stroke-width="2.9" fill="none"></path></g><g><path d="M28.045984520670025 31.91879726285115 C28.617215630877762 31.95074273936823, 28.969210653286428 31.825914803076536, 30.690816830750556 32.06923716003075" stroke="#2B4A7C" stroke-width="2.9" fill="none"></path></g>
</svg>
