<?xml version="1.0" encoding="UTF-8"?>
<!-- RTN V2 Ledger icon — 4.8 Skill -->
<!-- Generated with rough.js · roughness 1.1 · bowing 1.6 · stroke 2.9 · seed 408 -->
<svg xmlns="http://www.w3.org/2000/svg" viewBox="0 0 64 64" width="64" height="64" fill="none">
<g><path d="M28.630018540331875 10.040765319724532 C32.60508787708607 8.612370272173752, 37.11369931540251 8.923172601603591, 40.92210874900196 11.179944623792789 C44.7305181826014 13.436716645981987, 49.834146390939374 18.86509958096583, 51.48047514192856 23.58139745285972 C53.12680389291774 28.297695324753608, 52.05493148246852 34.830226396857114, 50.800081254937076 39.47773185515612 C49.545231027405634 44.12523731345513, 47.41117120743668 48.962982401869674, 43.95137377673992 51.46643020265377 C40.49157634604316 53.96987800343786, 34.524621554916706 55.219590779981885, 30.041296670756502 54.49841865986068 C25.557971786596298 53.77724653973948, 20.165057881263515 50.71073994256551, 17.051424471778695 47.13939748192654 C13.937791062293876 43.56805502128756, 11.47255017581348 37.90838965931028, 11.359496213847581 33.07036389602683 C11.246442251881684 28.232338132743372, 13.079226035904737 22.004404904118772, 16.37310069998331 18.111242902225822 C19.666975364061884 14.21808090033287, 28.444435621449987 11.063293426449308, 31.122744198319026 9.71139188466912 C33.80105277518806 8.35949034288893, 32.46298353401832 9.596334330523293, 32.44295216119754 9.99983365154469" stroke="#2B4A7C" stroke-width="2.9" fill="none"></path></g><g><path d="M23.85282864110048 27.54262690377201 C25.383126609071528 30.016286481684066, 28.198189466934803 31.331541124950103, 30.88826870569609 34.800845040404596 M32.42867102327124 37.19003887274582 C34.88152158861642 34.85979723146663, 37.3136533101349 31.83653088726562, 40.25797542363466 28.185277776175685" stroke="#2B4A7C" stroke-width="2.9" fill="none"></path></g>
</svg>
