<?xml version="1.0" encoding="UTF-8"?>
<!-- RTN V2 Ledger icon — 4.1 Task -->
<!-- Generated with rough.js · roughness 1.1 · bowing 1.6 · stroke 2.9 · seed 401 -->
<svg xmlns="http://www.w3.org/2000/svg" viewBox="0 0 64 64" width="64" height="64" fill="none">
<g><path d="M17.164641233993652 20.482416274400414 C19.41094804141484 19.687873447220987, 23.72436324569475 20.788377388967792, 26.224469386728096 21.74084728021253 C28.72457552776144 22.69331717145727, 31.151782315011225 24.287217891565486, 32.16527808019373 26.197235621868856 C33.178773845376234 28.107253352172226, 32.68172025333226 30.80346793550593, 32.30544397782312 33.20095366203275 C31.92916770231398 35.59843938855958, 31.460687490321796 38.7560786859507, 29.907620427138898 40.58214998102979 C28.354553363956 42.408221276108875, 25.460862133696242 44.18786197537708, 22.98704159872573 44.15738143250731 C20.51322106375522 44.12690088963753, 17.092181343852793 42.13353236079564, 15.064697217315839 40.39926672381115 C13.037213090778886 38.66500108682666, 11.20154820228342 36.1062279359709, 10.822136839504013 33.751787610600395 C10.442725476724608 31.397347285229895, 11.458700044584115 28.532121718473213, 12.7882290406394 26.272624771588145 C14.117758036694687 24.013127824703076, 17.54658308985354 20.958976085602682, 18.799310815835728 20.19480592928999 C20.052038541817915 19.4306357729773, 20.08898891039701 21.544618499137787, 20.30459539653251 21.687603833712004" stroke="#2B4A7C" stroke-width="2.9" fill="none"></path></g><g><path d="M33.7650161091052 30.532602617088706 C37.413378637302664 30.68013375520781, 40.66139851031825 30.454581236243996, 53.750857311245056 33.31327111000195" stroke="#2B4A7C" stroke-width="2.9" fill="none"></path></g><g><path d="M45.889227531519126 25.30826223989869 C47.02264566760557 26.556485896100906, 48.05224035206369 27.660975801788577, 52.82536205178095 32.61908193827917 M51.89276307422321 32.09711099664367 C50.08144492471631 34.35344457337725, 48.30347653727336 36.116605012885934, 45.31854893692105 37.88721511644048" stroke="#2B4A7C" stroke-width="2.9" fill="none"></path></g>
</svg>
